<mxfile>
    <diagram id="6hGFLwfOUW9BJ-s0fimq" name="Page-1">
        <mxGraphModel dx="565" dy="1555" grid="1" gridSize="10" guides="1" tooltips="1" connect="1" arrows="1" fold="1" page="1" pageScale="1" pageWidth="827" pageHeight="1169" math="0" shadow="0">
            <root>
                <mxCell id="0"/>
                <mxCell id="1" parent="0"/>
                <mxCell id="2" value="" style="shape=folder;fontStyle=1;spacingTop=10;tabWidth=40;tabHeight=14;tabPosition=left;html=1;fillColor=#dae8fc;strokeColor=#6c8ebf;" parent="1" vertex="1">
                    <mxGeometry x="40" y="140" width="690" height="510" as="geometry"/>
                </mxCell>
                <mxCell id="3" value="Entiry" style="text;align=center;fontStyle=1;verticalAlign=middle;spacingLeft=3;spacingRight=3;strokeColor=none;rotatable=0;points=[[0,0.5],[1,0.5]];portConstraint=eastwest;fontSize=35;" parent="1" vertex="1">
                    <mxGeometry x="60" y="170" width="80" height="26" as="geometry"/>
                </mxCell>
                <mxCell id="28" value="" style="shape=folder;fontStyle=1;spacingTop=10;tabWidth=40;tabHeight=14;tabPosition=left;html=1;fillColor=#fff2cc;strokeColor=#d6b656;" parent="1" vertex="1">
                    <mxGeometry x="120" y="660" width="670" height="500" as="geometry"/>
                </mxCell>
                <mxCell id="29" value="Repository" style="text;align=center;fontStyle=1;verticalAlign=middle;spacingLeft=3;spacingRight=3;strokeColor=none;rotatable=0;points=[[0,0.5],[1,0.5]];portConstraint=eastwest;fontSize=35;" parent="1" vertex="1">
                    <mxGeometry x="195" y="690" width="80" height="26" as="geometry"/>
                </mxCell>
                <mxCell id="56" value="" style="group" parent="1" vertex="1" connectable="0">
                    <mxGeometry x="830" y="680" width="630" height="375" as="geometry"/>
                </mxCell>
                <mxCell id="54" value="" style="shape=folder;fontStyle=1;spacingTop=10;tabWidth=40;tabHeight=14;tabPosition=left;html=1;fillColor=#ffe6cc;fontSize=12;strokeColor=#d79b00;" parent="56" vertex="1">
                    <mxGeometry width="630" height="375" as="geometry"/>
                </mxCell>
                <mxCell id="55" value="Services" style="text;align=center;fontStyle=1;verticalAlign=middle;spacingLeft=3;spacingRight=3;strokeColor=none;rotatable=0;points=[[0,0.5],[1,0.5]];portConstraint=eastwest;fontSize=35;" parent="56" vertex="1">
                    <mxGeometry x="47" y="31" width="80" height="26" as="geometry"/>
                </mxCell>
                <mxCell id="57" value="" style="group" parent="1" vertex="1" connectable="0">
                    <mxGeometry x="750" y="280" width="690" height="375" as="geometry"/>
                </mxCell>
                <mxCell id="58" value="" style="shape=folder;fontStyle=1;spacingTop=10;tabWidth=40;tabHeight=14;tabPosition=left;html=1;fillColor=#f8cecc;fontSize=12;strokeColor=#b85450;" parent="57" vertex="1">
                    <mxGeometry width="690.0000000000001" height="375" as="geometry"/>
                </mxCell>
                <mxCell id="59" value="Controller" style="text;align=center;fontStyle=1;verticalAlign=middle;spacingLeft=3;spacingRight=3;strokeColor=none;rotatable=0;points=[[0,0.5],[1,0.5]];portConstraint=eastwest;fontSize=35;" parent="57" vertex="1">
                    <mxGeometry x="65.71428571428572" y="31" width="87.61904761904762" height="26" as="geometry"/>
                </mxCell>
                <mxCell id="86" value="" style="group" parent="1" vertex="1" connectable="0">
                    <mxGeometry x="170" y="-210" width="1000" height="310" as="geometry"/>
                </mxCell>
                <mxCell id="62" value="" style="group" parent="86" vertex="1" connectable="0">
                    <mxGeometry width="1000" height="310" as="geometry"/>
                </mxCell>
                <mxCell id="60" value="" style="shape=folder;fontStyle=1;spacingTop=10;tabWidth=40;tabHeight=14;tabPosition=left;html=1;fillColor=#f5f5f5;fontSize=12;strokeColor=#666666;fontColor=#333333;" parent="62" vertex="1">
                    <mxGeometry x="10" y="40" width="1010.45" height="289.06" as="geometry"/>
                </mxCell>
                <mxCell id="61" value="Configuration" style="text;align=center;fontStyle=1;verticalAlign=middle;spacingLeft=3;spacingRight=3;strokeColor=none;rotatable=0;points=[[0,0.5],[1,0.5]];portConstraint=eastwest;fontSize=35;" parent="62" vertex="1">
                    <mxGeometry x="104.04550561797754" y="60" width="83.59550561797754" height="25.187500000000007" as="geometry"/>
                </mxCell>
                <mxCell id="82" value="UIDBConfig" style="swimlane;fontStyle=1;align=center;verticalAlign=top;childLayout=stackLayout;horizontal=1;startSize=26;horizontalStack=0;resizeParent=1;resizeParentMax=0;resizeLast=0;collapsible=1;marginBottom=0;fontSize=12;" parent="62" vertex="1">
                    <mxGeometry x="640.45" y="118.12500000000001" width="350" height="165.50000000000003" as="geometry"/>
                </mxCell>
                <mxCell id="83" value="+ dataSource(): DataSource" style="text;strokeColor=none;fillColor=#ffffff;align=left;verticalAlign=top;spacingLeft=4;spacingRight=4;overflow=hidden;rotatable=0;points=[[0,0.5],[1,0.5]];portConstraint=eastwest;" parent="82" vertex="1">
                    <mxGeometry y="26" width="350" height="25.187500000000007" as="geometry"/>
                </mxCell>
                <mxCell id="84" value="+ entityManagerFactory(&#10;builder: EntityManagerFactoryBuilder&#10;, dataSource: DataSource)&#10;: LocalContainerEntityManagerFactoryBean" style="text;strokeColor=none;fillColor=#ffffff;align=left;verticalAlign=top;spacingLeft=4;spacingRight=4;overflow=hidden;rotatable=0;points=[[0,0.5],[1,0.5]];portConstraint=eastwest;" parent="82" vertex="1">
                    <mxGeometry y="51.18750000000001" width="350" height="65.87500000000001" as="geometry"/>
                </mxCell>
                <mxCell id="85" value="+ transactionManager(&#10;entityManagerFactoy: EntityManagerFactory)&#10;:PlatformTransactionManager" style="text;strokeColor=none;fillColor=#ffffff;align=left;verticalAlign=top;spacingLeft=4;spacingRight=4;overflow=hidden;rotatable=0;points=[[0,0.5],[1,0.5]];portConstraint=eastwest;" parent="82" vertex="1">
                    <mxGeometry y="117.06250000000003" width="350" height="48.43750000000001" as="geometry"/>
                </mxCell>
                <mxCell id="67" value="Configuration" style="swimlane;fontStyle=1;align=center;verticalAlign=top;childLayout=stackLayout;horizontal=1;startSize=26;horizontalStack=0;resizeParent=1;resizeParentMax=0;resizeLast=0;collapsible=1;marginBottom=0;fontSize=12;" parent="86" vertex="1">
                    <mxGeometry x="30.45" y="118.12500000000001" width="230" height="151.93750000000003" as="geometry"/>
                </mxCell>
                <mxCell id="68" value="- Base_Service_DIR: String" style="text;strokeColor=none;fillColor=#ffffff;align=left;verticalAlign=top;spacingLeft=4;spacingRight=4;overflow=hidden;rotatable=0;points=[[0,0.5],[1,0.5]];portConstraint=eastwest;" parent="67" vertex="1">
                    <mxGeometry y="26" width="230" height="25.187500000000007" as="geometry"/>
                </mxCell>
                <mxCell id="71" value="- Project_Name: String" style="text;strokeColor=none;fillColor=#ffffff;align=left;verticalAlign=top;spacingLeft=4;spacingRight=4;overflow=hidden;rotatable=0;points=[[0,0.5],[1,0.5]];portConstraint=eastwest;" parent="67" vertex="1">
                    <mxGeometry y="51.18750000000001" width="230" height="25.187500000000007" as="geometry"/>
                </mxCell>
                <mxCell id="72" value="- Maven_Base_DIR: String" style="text;strokeColor=none;fillColor=#ffffff;align=left;verticalAlign=top;spacingLeft=4;spacingRight=4;overflow=hidden;rotatable=0;points=[[0,0.5],[1,0.5]];portConstraint=eastwest;" parent="67" vertex="1">
                    <mxGeometry y="76.37500000000001" width="230" height="25.187500000000007" as="geometry"/>
                </mxCell>
                <mxCell id="74" value="+ Base_Source_Code_DIR_PATH: String" style="text;strokeColor=none;fillColor=#ffffff;align=left;verticalAlign=top;spacingLeft=4;spacingRight=4;overflow=hidden;rotatable=0;points=[[0,0.5],[1,0.5]];portConstraint=eastwest;" parent="67" vertex="1">
                    <mxGeometry y="101.56250000000003" width="230" height="25.187500000000007" as="geometry"/>
                </mxCell>
                <mxCell id="75" value="+ Base_WSDL_DIR_PATH: String" style="text;strokeColor=none;fillColor=#ffffff;align=left;verticalAlign=top;spacingLeft=4;spacingRight=4;overflow=hidden;rotatable=0;points=[[0,0.5],[1,0.5]];portConstraint=eastwest;" parent="67" vertex="1">
                    <mxGeometry y="126.75000000000003" width="230" height="25.187500000000007" as="geometry"/>
                </mxCell>
                <mxCell id="76" value="ServiceDBConfig" style="swimlane;fontStyle=1;align=center;verticalAlign=top;childLayout=stackLayout;horizontal=1;startSize=26;horizontalStack=0;resizeParent=1;resizeParentMax=0;resizeLast=0;collapsible=1;marginBottom=0;fontSize=12;" parent="86" vertex="1">
                    <mxGeometry x="280.45" y="118.12500000000001" width="350" height="165.50000000000003" as="geometry"/>
                </mxCell>
                <mxCell id="79" value="+ dataSource(): DataSource" style="text;strokeColor=none;fillColor=#ffffff;align=left;verticalAlign=top;spacingLeft=4;spacingRight=4;overflow=hidden;rotatable=0;points=[[0,0.5],[1,0.5]];portConstraint=eastwest;" parent="76" vertex="1">
                    <mxGeometry y="26" width="350" height="25.187500000000007" as="geometry"/>
                </mxCell>
                <mxCell id="80" value="+ entityManagerFactory(&#10;builder: EntityManagerFactoryBuilder&#10;, dataSource: DataSource)&#10;: LocalContainerEntityManagerFactoryBean" style="text;strokeColor=none;fillColor=#ffffff;align=left;verticalAlign=top;spacingLeft=4;spacingRight=4;overflow=hidden;rotatable=0;points=[[0,0.5],[1,0.5]];portConstraint=eastwest;" parent="76" vertex="1">
                    <mxGeometry y="51.18750000000001" width="350" height="65.87500000000001" as="geometry"/>
                </mxCell>
                <mxCell id="81" value="+ transactionManager(&#10;entityManagerFactoy: EntityManagerFactory)&#10;:PlatformTransactionManager" style="text;strokeColor=none;fillColor=#ffffff;align=left;verticalAlign=top;spacingLeft=4;spacingRight=4;overflow=hidden;rotatable=0;points=[[0,0.5],[1,0.5]];portConstraint=eastwest;" parent="76" vertex="1">
                    <mxGeometry y="117.06250000000003" width="350" height="48.43750000000001" as="geometry"/>
                </mxCell>
                <mxCell id="4" value="ArgumentTable" style="swimlane;fontStyle=1;align=center;verticalAlign=top;childLayout=stackLayout;horizontal=1;startSize=26;horizontalStack=0;resizeParent=1;resizeParentMax=0;resizeLast=0;collapsible=1;marginBottom=0;fontSize=12;" parent="1" vertex="1">
                    <mxGeometry x="60" y="230" width="160" height="182" as="geometry"/>
                </mxCell>
                <mxCell id="5" value="- argumentID: int" style="text;strokeColor=none;fillColor=#ffffff;align=left;verticalAlign=top;spacingLeft=4;spacingRight=4;overflow=hidden;rotatable=0;points=[[0,0.5],[1,0.5]];portConstraint=eastwest;" parent="4" vertex="1">
                    <mxGeometry y="26" width="160" height="26" as="geometry"/>
                </mxCell>
                <mxCell id="89" value="- name: String" style="text;strokeColor=none;fillColor=#ffffff;align=left;verticalAlign=top;spacingLeft=4;spacingRight=4;overflow=hidden;rotatable=0;points=[[0,0.5],[1,0.5]];portConstraint=eastwest;" parent="4" vertex="1">
                    <mxGeometry y="52" width="160" height="26" as="geometry"/>
                </mxCell>
                <mxCell id="87" value="- primitiveType: String" style="text;strokeColor=none;fillColor=#ffffff;align=left;verticalAlign=top;spacingLeft=4;spacingRight=4;overflow=hidden;rotatable=0;points=[[0,0.5],[1,0.5]];portConstraint=eastwest;" parent="4" vertex="1">
                    <mxGeometry y="78" width="160" height="26" as="geometry"/>
                </mxCell>
                <mxCell id="88" value="- complexTypeID: int" style="text;strokeColor=none;fillColor=#ffffff;align=left;verticalAlign=top;spacingLeft=4;spacingRight=4;overflow=hidden;rotatable=0;points=[[0,0.5],[1,0.5]];portConstraint=eastwest;" parent="4" vertex="1">
                    <mxGeometry y="104" width="160" height="26" as="geometry"/>
                </mxCell>
                <mxCell id="90" value="- nth: int" style="text;strokeColor=none;fillColor=#ffffff;align=left;verticalAlign=top;spacingLeft=4;spacingRight=4;overflow=hidden;rotatable=0;points=[[0,0.5],[1,0.5]];portConstraint=eastwest;" parent="4" vertex="1">
                    <mxGeometry y="130" width="160" height="26" as="geometry"/>
                </mxCell>
                <mxCell id="91" value="- serviceID: int" style="text;strokeColor=none;fillColor=#ffffff;align=left;verticalAlign=top;spacingLeft=4;spacingRight=4;overflow=hidden;rotatable=0;points=[[0,0.5],[1,0.5]];portConstraint=eastwest;" parent="4" vertex="1">
                    <mxGeometry y="156" width="160" height="26" as="geometry"/>
                </mxCell>
                <mxCell id="8" value="ClassTable" style="swimlane;fontStyle=1;align=center;verticalAlign=top;childLayout=stackLayout;horizontal=1;startSize=26;horizontalStack=0;resizeParent=1;resizeParentMax=0;resizeLast=0;collapsible=1;marginBottom=0;fontSize=12;" parent="1" vertex="1">
                    <mxGeometry x="230" y="230" width="160" height="104" as="geometry"/>
                </mxCell>
                <mxCell id="9" value="- classID: int" style="text;strokeColor=none;fillColor=#ffffff;align=left;verticalAlign=top;spacingLeft=4;spacingRight=4;overflow=hidden;rotatable=0;points=[[0,0.5],[1,0.5]];portConstraint=eastwest;" parent="8" vertex="1">
                    <mxGeometry y="26" width="160" height="26" as="geometry"/>
                </mxCell>
                <mxCell id="92" value="- className: String" style="text;strokeColor=none;fillColor=#ffffff;align=left;verticalAlign=top;spacingLeft=4;spacingRight=4;overflow=hidden;rotatable=0;points=[[0,0.5],[1,0.5]];portConstraint=eastwest;" parent="8" vertex="1">
                    <mxGeometry y="52" width="160" height="26" as="geometry"/>
                </mxCell>
                <mxCell id="93" value="- docString: String" style="text;strokeColor=none;fillColor=#ffffff;align=left;verticalAlign=top;spacingLeft=4;spacingRight=4;overflow=hidden;rotatable=0;points=[[0,0.5],[1,0.5]];portConstraint=eastwest;" parent="8" vertex="1">
                    <mxGeometry y="78" width="160" height="26" as="geometry"/>
                </mxCell>
                <mxCell id="103" value="" style="endArrow=open;endFill=1;endSize=12;html=1;fontSize=12;exitX=0;exitY=0.5;exitDx=0;exitDy=0;entryX=0.999;entryY=0.138;entryDx=0;entryDy=0;entryPerimeter=0;" parent="1" source="102" target="8" edge="1">
                    <mxGeometry width="160" relative="1" as="geometry">
                        <mxPoint x="240" y="340" as="sourcePoint"/>
                        <mxPoint x="400" y="340" as="targetPoint"/>
                        <Array as="points">
                            <mxPoint x="420" y="477"/>
                            <mxPoint x="420" y="244"/>
                        </Array>
                    </mxGeometry>
                </mxCell>
                <mxCell id="12" value="ServiceComponentTable" style="swimlane;fontStyle=1;align=center;verticalAlign=top;childLayout=stackLayout;horizontal=1;startSize=26;horizontalStack=0;resizeParent=1;resizeParentMax=0;resizeLast=0;collapsible=1;marginBottom=0;fontSize=12;" parent="1" vertex="1">
                    <mxGeometry x="450" y="230" width="160" height="260" as="geometry"/>
                </mxCell>
                <mxCell id="13" value="- serviceID: int" style="text;strokeColor=none;fillColor=#ffffff;align=left;verticalAlign=top;spacingLeft=4;spacingRight=4;overflow=hidden;rotatable=0;points=[[0,0.5],[1,0.5]];portConstraint=eastwest;" parent="12" vertex="1">
                    <mxGeometry y="26" width="160" height="26" as="geometry"/>
                </mxCell>
                <mxCell id="95" value="- argumentCount: int" style="text;strokeColor=none;fillColor=#ffffff;align=left;verticalAlign=top;spacingLeft=4;spacingRight=4;overflow=hidden;rotatable=0;points=[[0,0.5],[1,0.5]];portConstraint=eastwest;" parent="12" vertex="1">
                    <mxGeometry y="52" width="160" height="26" as="geometry"/>
                </mxCell>
                <mxCell id="96" value="- code: String" style="text;strokeColor=none;fillColor=#ffffff;align=left;verticalAlign=top;spacingLeft=4;spacingRight=4;overflow=hidden;rotatable=0;points=[[0,0.5],[1,0.5]];portConstraint=eastwest;" parent="12" vertex="1">
                    <mxGeometry y="78" width="160" height="26" as="geometry"/>
                </mxCell>
                <mxCell id="97" value="- docString: String" style="text;strokeColor=none;fillColor=#ffffff;align=left;verticalAlign=top;spacingLeft=4;spacingRight=4;overflow=hidden;rotatable=0;points=[[0,0.5],[1,0.5]];portConstraint=eastwest;" parent="12" vertex="1">
                    <mxGeometry y="104" width="160" height="26" as="geometry"/>
                </mxCell>
                <mxCell id="98" value="- isDatabase: Boolean" style="text;strokeColor=none;fillColor=#ffffff;align=left;verticalAlign=top;spacingLeft=4;spacingRight=4;overflow=hidden;rotatable=0;points=[[0,0.5],[1,0.5]];portConstraint=eastwest;" parent="12" vertex="1">
                    <mxGeometry y="130" width="160" height="26" as="geometry"/>
                </mxCell>
                <mxCell id="99" value="- methodException: String" style="text;strokeColor=none;fillColor=#ffffff;align=left;verticalAlign=top;spacingLeft=4;spacingRight=4;overflow=hidden;rotatable=0;points=[[0,0.5],[1,0.5]];portConstraint=eastwest;" parent="12" vertex="1">
                    <mxGeometry y="156" width="160" height="26" as="geometry"/>
                </mxCell>
                <mxCell id="100" value="- name: String" style="text;strokeColor=none;fillColor=#ffffff;align=left;verticalAlign=top;spacingLeft=4;spacingRight=4;overflow=hidden;rotatable=0;points=[[0,0.5],[1,0.5]];portConstraint=eastwest;" parent="12" vertex="1">
                    <mxGeometry y="182" width="160" height="26" as="geometry"/>
                </mxCell>
                <mxCell id="101" value="- frameworkTypeID: int" style="text;strokeColor=none;fillColor=#ffffff;align=left;verticalAlign=top;spacingLeft=4;spacingRight=4;overflow=hidden;rotatable=0;points=[[0,0.5],[1,0.5]];portConstraint=eastwest;" parent="12" vertex="1">
                    <mxGeometry y="208" width="160" height="26" as="geometry"/>
                </mxCell>
                <mxCell id="102" value="- klass: ClassTable" style="text;strokeColor=none;fillColor=#ffffff;align=left;verticalAlign=top;spacingLeft=4;spacingRight=4;overflow=hidden;rotatable=0;points=[[0,0.5],[1,0.5]];portConstraint=eastwest;" parent="12" vertex="1">
                    <mxGeometry y="234" width="160" height="26" as="geometry"/>
                </mxCell>
                <mxCell id="16" value="NavigationTable" style="swimlane;fontStyle=1;align=center;verticalAlign=top;childLayout=stackLayout;horizontal=1;startSize=26;horizontalStack=0;resizeParent=1;resizeParentMax=0;resizeLast=0;collapsible=1;marginBottom=0;fontSize=12;" parent="1" vertex="1">
                    <mxGeometry x="80" y="520" width="160" height="78" as="geometry"/>
                </mxCell>
                <mxCell id="17" value="- id: int" style="text;strokeColor=none;fillColor=#ffffff;align=left;verticalAlign=top;spacingLeft=4;spacingRight=4;overflow=hidden;rotatable=0;points=[[0,0.5],[1,0.5]];portConstraint=eastwest;" parent="16" vertex="1">
                    <mxGeometry y="26" width="160" height="26" as="geometry"/>
                </mxCell>
                <mxCell id="104" value="- ndl: String" style="text;strokeColor=none;fillColor=#ffffff;align=left;verticalAlign=top;spacingLeft=4;spacingRight=4;overflow=hidden;rotatable=0;points=[[0,0.5],[1,0.5]];portConstraint=eastwest;" parent="16" vertex="1">
                    <mxGeometry y="52" width="160" height="26" as="geometry"/>
                </mxCell>
                <mxCell id="24" value="PagesTable" style="swimlane;fontStyle=1;align=center;verticalAlign=top;childLayout=stackLayout;horizontal=1;startSize=26;horizontalStack=0;resizeParent=1;resizeParentMax=0;resizeLast=0;collapsible=1;marginBottom=0;fontSize=12;" parent="1" vertex="1">
                    <mxGeometry x="275" y="510" width="160" height="130" as="geometry"/>
                </mxCell>
                <mxCell id="25" value="- id: int" style="text;strokeColor=none;fillColor=#ffffff;align=left;verticalAlign=top;spacingLeft=4;spacingRight=4;overflow=hidden;rotatable=0;points=[[0,0.5],[1,0.5]];portConstraint=eastwest;" parent="24" vertex="1">
                    <mxGeometry y="26" width="160" height="26" as="geometry"/>
                </mxCell>
                <mxCell id="105" value="- selector: String" style="text;strokeColor=none;fillColor=#ffffff;align=left;verticalAlign=top;spacingLeft=4;spacingRight=4;overflow=hidden;rotatable=0;points=[[0,0.5],[1,0.5]];portConstraint=eastwest;" parent="24" vertex="1">
                    <mxGeometry y="52" width="160" height="26" as="geometry"/>
                </mxCell>
                <mxCell id="106" value="- pdl: String" style="text;strokeColor=none;fillColor=#ffffff;align=left;verticalAlign=top;spacingLeft=4;spacingRight=4;overflow=hidden;rotatable=0;points=[[0,0.5],[1,0.5]];portConstraint=eastwest;" parent="24" vertex="1">
                    <mxGeometry y="78" width="160" height="26" as="geometry"/>
                </mxCell>
                <mxCell id="107" value="- layout: String" style="text;strokeColor=none;fillColor=#ffffff;align=left;verticalAlign=top;spacingLeft=4;spacingRight=4;overflow=hidden;rotatable=0;points=[[0,0.5],[1,0.5]];portConstraint=eastwest;" parent="24" vertex="1">
                    <mxGeometry y="104" width="160" height="26" as="geometry"/>
                </mxCell>
                <mxCell id="20" value="TemplatesTable" style="swimlane;fontStyle=1;align=center;verticalAlign=top;childLayout=stackLayout;horizontal=1;startSize=26;horizontalStack=0;resizeParent=1;resizeParentMax=0;resizeLast=0;collapsible=1;marginBottom=0;fontSize=12;" parent="1" vertex="1">
                    <mxGeometry x="460" y="510" width="160" height="126" as="geometry"/>
                </mxCell>
                <mxCell id="21" value="- id: int" style="text;strokeColor=none;fillColor=#ffffff;align=left;verticalAlign=top;spacingLeft=4;spacingRight=4;overflow=hidden;rotatable=0;points=[[0,0.5],[1,0.5]];portConstraint=eastwest;" parent="20" vertex="1">
                    <mxGeometry y="26" width="160" height="26" as="geometry"/>
                </mxCell>
                <mxCell id="108" value="- selector: String" style="text;strokeColor=none;fillColor=#ffffff;align=left;verticalAlign=top;spacingLeft=4;spacingRight=4;overflow=hidden;rotatable=0;points=[[0,0.5],[1,0.5]];portConstraint=eastwest;" parent="20" vertex="1">
                    <mxGeometry y="52" width="160" height="26" as="geometry"/>
                </mxCell>
                <mxCell id="109" value="- page: String" style="text;strokeColor=none;fillColor=#ffffff;align=left;verticalAlign=top;spacingLeft=4;spacingRight=4;overflow=hidden;rotatable=0;points=[[0,0.5],[1,0.5]];portConstraint=eastwest;" parent="20" vertex="1">
                    <mxGeometry y="78" width="160" height="22" as="geometry"/>
                </mxCell>
                <mxCell id="110" value="- html: String" style="text;strokeColor=none;fillColor=#ffffff;align=left;verticalAlign=top;spacingLeft=4;spacingRight=4;overflow=hidden;rotatable=0;points=[[0,0.5],[1,0.5]];portConstraint=eastwest;" parent="20" vertex="1">
                    <mxGeometry y="100" width="160" height="26" as="geometry"/>
                </mxCell>
                <mxCell id="115" value="InternalRepresentationController" style="swimlane;fontStyle=1;align=center;verticalAlign=top;childLayout=stackLayout;horizontal=1;startSize=26;horizontalStack=0;resizeParent=1;resizeParentMax=0;resizeLast=0;collapsible=1;marginBottom=0;fontSize=12;" parent="1" vertex="1">
                    <mxGeometry x="790" y="424" width="195" height="86" as="geometry"/>
                </mxCell>
                <mxCell id="116" value="+ field: type" style="text;strokeColor=none;fillColor=#ffffff;align=left;verticalAlign=top;spacingLeft=4;spacingRight=4;overflow=hidden;rotatable=0;points=[[0,0.5],[1,0.5]];portConstraint=eastwest;" parent="115" vertex="1">
                    <mxGeometry y="26" width="195" height="26" as="geometry"/>
                </mxCell>
                <mxCell id="117" value="" style="line;strokeWidth=1;fillColor=none;align=left;verticalAlign=middle;spacingTop=-1;spacingLeft=3;spacingRight=3;rotatable=0;labelPosition=right;points=[];portConstraint=eastwest;" parent="115" vertex="1">
                    <mxGeometry y="52" width="195" height="8" as="geometry"/>
                </mxCell>
                <mxCell id="118" value="+ method(type): type" style="text;strokeColor=none;fillColor=#ffffff;align=left;verticalAlign=top;spacingLeft=4;spacingRight=4;overflow=hidden;rotatable=0;points=[[0,0.5],[1,0.5]];portConstraint=eastwest;" parent="115" vertex="1">
                    <mxGeometry y="60" width="195" height="26" as="geometry"/>
                </mxCell>
                <mxCell id="119" value="NavigationController" style="swimlane;fontStyle=1;align=center;verticalAlign=top;childLayout=stackLayout;horizontal=1;startSize=26;horizontalStack=0;resizeParent=1;resizeParentMax=0;resizeLast=0;collapsible=1;marginBottom=0;fontSize=12;" parent="1" vertex="1">
                    <mxGeometry x="1010" y="424" width="195" height="86" as="geometry"/>
                </mxCell>
                <mxCell id="120" value="+ field: type" style="text;strokeColor=none;fillColor=#ffffff;align=left;verticalAlign=top;spacingLeft=4;spacingRight=4;overflow=hidden;rotatable=0;points=[[0,0.5],[1,0.5]];portConstraint=eastwest;" parent="119" vertex="1">
                    <mxGeometry y="26" width="195" height="26" as="geometry"/>
                </mxCell>
                <mxCell id="121" value="" style="line;strokeWidth=1;fillColor=none;align=left;verticalAlign=middle;spacingTop=-1;spacingLeft=3;spacingRight=3;rotatable=0;labelPosition=right;points=[];portConstraint=eastwest;" parent="119" vertex="1">
                    <mxGeometry y="52" width="195" height="8" as="geometry"/>
                </mxCell>
                <mxCell id="122" value="+ method(type): type" style="text;strokeColor=none;fillColor=#ffffff;align=left;verticalAlign=top;spacingLeft=4;spacingRight=4;overflow=hidden;rotatable=0;points=[[0,0.5],[1,0.5]];portConstraint=eastwest;" parent="119" vertex="1">
                    <mxGeometry y="60" width="195" height="26" as="geometry"/>
                </mxCell>
                <mxCell id="123" value="ServiceComponentController" style="swimlane;fontStyle=1;align=center;verticalAlign=top;childLayout=stackLayout;horizontal=1;startSize=26;horizontalStack=0;resizeParent=1;resizeParentMax=0;resizeLast=0;collapsible=1;marginBottom=0;fontSize=12;" parent="1" vertex="1">
                    <mxGeometry x="1230" y="424.5" width="195" height="86" as="geometry"/>
                </mxCell>
                <mxCell id="124" value="+ field: type" style="text;strokeColor=none;fillColor=#ffffff;align=left;verticalAlign=top;spacingLeft=4;spacingRight=4;overflow=hidden;rotatable=0;points=[[0,0.5],[1,0.5]];portConstraint=eastwest;" parent="123" vertex="1">
                    <mxGeometry y="26" width="195" height="26" as="geometry"/>
                </mxCell>
                <mxCell id="125" value="" style="line;strokeWidth=1;fillColor=none;align=left;verticalAlign=middle;spacingTop=-1;spacingLeft=3;spacingRight=3;rotatable=0;labelPosition=right;points=[];portConstraint=eastwest;" parent="123" vertex="1">
                    <mxGeometry y="52" width="195" height="8" as="geometry"/>
                </mxCell>
                <mxCell id="126" value="+ method(type): type" style="text;strokeColor=none;fillColor=#ffffff;align=left;verticalAlign=top;spacingLeft=4;spacingRight=4;overflow=hidden;rotatable=0;points=[[0,0.5],[1,0.5]];portConstraint=eastwest;" parent="123" vertex="1">
                    <mxGeometry y="60" width="195" height="26" as="geometry"/>
                </mxCell>
                <mxCell id="38" value="ClassRepository" style="swimlane;fontStyle=1;align=center;verticalAlign=top;childLayout=stackLayout;horizontal=1;startSize=26;horizontalStack=0;resizeParent=1;resizeParentMax=0;resizeLast=0;collapsible=1;marginBottom=0;fontSize=12;" parent="1" vertex="1">
                    <mxGeometry x="560" y="824.5" width="160" height="86" as="geometry"/>
                </mxCell>
                <mxCell id="39" value="+ field: type" style="text;strokeColor=none;fillColor=#ffffff;align=left;verticalAlign=top;spacingLeft=4;spacingRight=4;overflow=hidden;rotatable=0;points=[[0,0.5],[1,0.5]];portConstraint=eastwest;" parent="38" vertex="1">
                    <mxGeometry y="26" width="160" height="26" as="geometry"/>
                </mxCell>
                <mxCell id="40" value="" style="line;strokeWidth=1;fillColor=none;align=left;verticalAlign=middle;spacingTop=-1;spacingLeft=3;spacingRight=3;rotatable=0;labelPosition=right;points=[];portConstraint=eastwest;" parent="38" vertex="1">
                    <mxGeometry y="52" width="160" height="8" as="geometry"/>
                </mxCell>
                <mxCell id="41" value="+ method(type): type" style="text;strokeColor=none;fillColor=#ffffff;align=left;verticalAlign=top;spacingLeft=4;spacingRight=4;overflow=hidden;rotatable=0;points=[[0,0.5],[1,0.5]];portConstraint=eastwest;" parent="38" vertex="1">
                    <mxGeometry y="60" width="160" height="26" as="geometry"/>
                </mxCell>
                <mxCell id="34" value="ServiceComponentRepository" style="swimlane;fontStyle=1;align=center;verticalAlign=top;childLayout=stackLayout;horizontal=1;startSize=26;horizontalStack=0;resizeParent=1;resizeParentMax=0;resizeLast=0;collapsible=1;marginBottom=0;fontSize=12;" parent="1" vertex="1">
                    <mxGeometry x="337.5" y="824.5" width="195" height="86" as="geometry"/>
                </mxCell>
                <mxCell id="35" value="+ field: type" style="text;strokeColor=none;fillColor=#ffffff;align=left;verticalAlign=top;spacingLeft=4;spacingRight=4;overflow=hidden;rotatable=0;points=[[0,0.5],[1,0.5]];portConstraint=eastwest;" parent="34" vertex="1">
                    <mxGeometry y="26" width="195" height="26" as="geometry"/>
                </mxCell>
                <mxCell id="36" value="" style="line;strokeWidth=1;fillColor=none;align=left;verticalAlign=middle;spacingTop=-1;spacingLeft=3;spacingRight=3;rotatable=0;labelPosition=right;points=[];portConstraint=eastwest;" parent="34" vertex="1">
                    <mxGeometry y="52" width="195" height="8" as="geometry"/>
                </mxCell>
                <mxCell id="37" value="+ method(type): type" style="text;strokeColor=none;fillColor=#ffffff;align=left;verticalAlign=top;spacingLeft=4;spacingRight=4;overflow=hidden;rotatable=0;points=[[0,0.5],[1,0.5]];portConstraint=eastwest;" parent="34" vertex="1">
                    <mxGeometry y="60" width="195" height="26" as="geometry"/>
                </mxCell>
                <mxCell id="30" value="ArgumentRepository" style="swimlane;fontStyle=1;align=center;verticalAlign=top;childLayout=stackLayout;horizontal=1;startSize=26;horizontalStack=0;resizeParent=1;resizeParentMax=0;resizeLast=0;collapsible=1;marginBottom=0;fontSize=12;" parent="1" vertex="1">
                    <mxGeometry x="155" y="824.5" width="160" height="86" as="geometry"/>
                </mxCell>
                <mxCell id="31" value="+ field: type" style="text;strokeColor=none;fillColor=#ffffff;align=left;verticalAlign=top;spacingLeft=4;spacingRight=4;overflow=hidden;rotatable=0;points=[[0,0.5],[1,0.5]];portConstraint=eastwest;" parent="30" vertex="1">
                    <mxGeometry y="26" width="160" height="26" as="geometry"/>
                </mxCell>
                <mxCell id="32" value="" style="line;strokeWidth=1;fillColor=none;align=left;verticalAlign=middle;spacingTop=-1;spacingLeft=3;spacingRight=3;rotatable=0;labelPosition=right;points=[];portConstraint=eastwest;" parent="30" vertex="1">
                    <mxGeometry y="52" width="160" height="8" as="geometry"/>
                </mxCell>
                <mxCell id="33" value="+ method(type): type" style="text;strokeColor=none;fillColor=#ffffff;align=left;verticalAlign=top;spacingLeft=4;spacingRight=4;overflow=hidden;rotatable=0;points=[[0,0.5],[1,0.5]];portConstraint=eastwest;" parent="30" vertex="1">
                    <mxGeometry y="60" width="160" height="26" as="geometry"/>
                </mxCell>
                <mxCell id="127" value="ServiceComponentService" style="swimlane;fontStyle=1;align=center;verticalAlign=top;childLayout=stackLayout;horizontal=1;startSize=26;horizontalStack=0;resizeParent=1;resizeParentMax=0;resizeLast=0;collapsible=1;marginBottom=0;fontSize=12;" parent="1" vertex="1">
                    <mxGeometry x="390" y="716" width="195" height="86" as="geometry"/>
                </mxCell>
                <mxCell id="128" value="+ field: type" style="text;strokeColor=none;fillColor=#ffffff;align=left;verticalAlign=top;spacingLeft=4;spacingRight=4;overflow=hidden;rotatable=0;points=[[0,0.5],[1,0.5]];portConstraint=eastwest;" parent="127" vertex="1">
                    <mxGeometry y="26" width="195" height="26" as="geometry"/>
                </mxCell>
                <mxCell id="129" value="" style="line;strokeWidth=1;fillColor=none;align=left;verticalAlign=middle;spacingTop=-1;spacingLeft=3;spacingRight=3;rotatable=0;labelPosition=right;points=[];portConstraint=eastwest;" parent="127" vertex="1">
                    <mxGeometry y="52" width="195" height="8" as="geometry"/>
                </mxCell>
                <mxCell id="130" value="+ method(type): type" style="text;strokeColor=none;fillColor=#ffffff;align=left;verticalAlign=top;spacingLeft=4;spacingRight=4;overflow=hidden;rotatable=0;points=[[0,0.5],[1,0.5]];portConstraint=eastwest;" parent="127" vertex="1">
                    <mxGeometry y="60" width="195" height="26" as="geometry"/>
                </mxCell>
                <mxCell id="131" value="PageService" style="swimlane;fontStyle=1;align=center;verticalAlign=top;childLayout=stackLayout;horizontal=1;startSize=26;horizontalStack=0;resizeParent=1;resizeParentMax=0;resizeLast=0;collapsible=1;marginBottom=0;fontSize=12;" parent="1" vertex="1">
                    <mxGeometry x="372.5" y="924" width="160" height="86" as="geometry"/>
                </mxCell>
                <mxCell id="132" value="+ field: type" style="text;strokeColor=none;fillColor=#ffffff;align=left;verticalAlign=top;spacingLeft=4;spacingRight=4;overflow=hidden;rotatable=0;points=[[0,0.5],[1,0.5]];portConstraint=eastwest;" parent="131" vertex="1">
                    <mxGeometry y="26" width="160" height="26" as="geometry"/>
                </mxCell>
                <mxCell id="133" value="" style="line;strokeWidth=1;fillColor=none;align=left;verticalAlign=middle;spacingTop=-1;spacingLeft=3;spacingRight=3;rotatable=0;labelPosition=right;points=[];portConstraint=eastwest;" parent="131" vertex="1">
                    <mxGeometry y="52" width="160" height="8" as="geometry"/>
                </mxCell>
                <mxCell id="134" value="+ method(type): type" style="text;strokeColor=none;fillColor=#ffffff;align=left;verticalAlign=top;spacingLeft=4;spacingRight=4;overflow=hidden;rotatable=0;points=[[0,0.5],[1,0.5]];portConstraint=eastwest;" parent="131" vertex="1">
                    <mxGeometry y="60" width="160" height="26" as="geometry"/>
                </mxCell>
                <mxCell id="50" value="NavigationRepository" style="swimlane;fontStyle=1;align=center;verticalAlign=top;childLayout=stackLayout;horizontal=1;startSize=26;horizontalStack=0;resizeParent=1;resizeParentMax=0;resizeLast=0;collapsible=1;marginBottom=0;fontSize=12;" parent="1" vertex="1">
                    <mxGeometry x="155" y="1050" width="160" height="86" as="geometry"/>
                </mxCell>
                <mxCell id="51" value="+ field: type" style="text;strokeColor=none;fillColor=#ffffff;align=left;verticalAlign=top;spacingLeft=4;spacingRight=4;overflow=hidden;rotatable=0;points=[[0,0.5],[1,0.5]];portConstraint=eastwest;" parent="50" vertex="1">
                    <mxGeometry y="26" width="160" height="26" as="geometry"/>
                </mxCell>
                <mxCell id="52" value="" style="line;strokeWidth=1;fillColor=none;align=left;verticalAlign=middle;spacingTop=-1;spacingLeft=3;spacingRight=3;rotatable=0;labelPosition=right;points=[];portConstraint=eastwest;" parent="50" vertex="1">
                    <mxGeometry y="52" width="160" height="8" as="geometry"/>
                </mxCell>
                <mxCell id="53" value="+ method(type): type" style="text;strokeColor=none;fillColor=#ffffff;align=left;verticalAlign=top;spacingLeft=4;spacingRight=4;overflow=hidden;rotatable=0;points=[[0,0.5],[1,0.5]];portConstraint=eastwest;" parent="50" vertex="1">
                    <mxGeometry y="60" width="160" height="26" as="geometry"/>
                </mxCell>
                <mxCell id="42" value="PagesRepository" style="swimlane;fontStyle=1;align=center;verticalAlign=top;childLayout=stackLayout;horizontal=1;startSize=26;horizontalStack=0;resizeParent=1;resizeParentMax=0;resizeLast=0;collapsible=1;marginBottom=0;fontSize=12;" parent="1" vertex="1">
                    <mxGeometry x="360" y="1050" width="160" height="86" as="geometry"/>
                </mxCell>
                <mxCell id="43" value="+ field: type" style="text;strokeColor=none;fillColor=#ffffff;align=left;verticalAlign=top;spacingLeft=4;spacingRight=4;overflow=hidden;rotatable=0;points=[[0,0.5],[1,0.5]];portConstraint=eastwest;" parent="42" vertex="1">
                    <mxGeometry y="26" width="160" height="26" as="geometry"/>
                </mxCell>
                <mxCell id="44" value="" style="line;strokeWidth=1;fillColor=none;align=left;verticalAlign=middle;spacingTop=-1;spacingLeft=3;spacingRight=3;rotatable=0;labelPosition=right;points=[];portConstraint=eastwest;" parent="42" vertex="1">
                    <mxGeometry y="52" width="160" height="8" as="geometry"/>
                </mxCell>
                <mxCell id="45" value="+ method(type): type" style="text;strokeColor=none;fillColor=#ffffff;align=left;verticalAlign=top;spacingLeft=4;spacingRight=4;overflow=hidden;rotatable=0;points=[[0,0.5],[1,0.5]];portConstraint=eastwest;" parent="42" vertex="1">
                    <mxGeometry y="60" width="160" height="26" as="geometry"/>
                </mxCell>
                <mxCell id="46" value="TemplatesRepository" style="swimlane;fontStyle=1;align=center;verticalAlign=top;childLayout=stackLayout;horizontal=1;startSize=26;horizontalStack=0;resizeParent=1;resizeParentMax=0;resizeLast=0;collapsible=1;marginBottom=0;fontSize=12;" parent="1" vertex="1">
                    <mxGeometry x="560" y="1050" width="195" height="86" as="geometry"/>
                </mxCell>
                <mxCell id="47" value="+ field: type" style="text;strokeColor=none;fillColor=#ffffff;align=left;verticalAlign=top;spacingLeft=4;spacingRight=4;overflow=hidden;rotatable=0;points=[[0,0.5],[1,0.5]];portConstraint=eastwest;" parent="46" vertex="1">
                    <mxGeometry y="26" width="195" height="26" as="geometry"/>
                </mxCell>
                <mxCell id="48" value="" style="line;strokeWidth=1;fillColor=none;align=left;verticalAlign=middle;spacingTop=-1;spacingLeft=3;spacingRight=3;rotatable=0;labelPosition=right;points=[];portConstraint=eastwest;" parent="46" vertex="1">
                    <mxGeometry y="52" width="195" height="8" as="geometry"/>
                </mxCell>
                <mxCell id="49" value="+ method(type): type" style="text;strokeColor=none;fillColor=#ffffff;align=left;verticalAlign=top;spacingLeft=4;spacingRight=4;overflow=hidden;rotatable=0;points=[[0,0.5],[1,0.5]];portConstraint=eastwest;" parent="46" vertex="1">
                    <mxGeometry y="60" width="195" height="26" as="geometry"/>
                </mxCell>
            </root>
        </mxGraphModel>
    </diagram>
    <diagram id="r8YUpmN5d05WDDA76XuB" name="Add/Edit Service Design">
        <mxGraphModel dx="1415" dy="386" grid="1" gridSize="10" guides="1" tooltips="1" connect="1" arrows="1" fold="1" page="1" pageScale="1" pageWidth="850" pageHeight="1100" math="0" shadow="0">
            <root>
                <mxCell id="vktTR3Zmn8FnwOJqByJN-0"/>
                <mxCell id="vktTR3Zmn8FnwOJqByJN-1" parent="vktTR3Zmn8FnwOJqByJN-0"/>
                <mxCell id="pvvVL7XVOMvlRUpM8crP-51" value="" style="rounded=0;whiteSpace=wrap;html=1;fontSize=12;" parent="vktTR3Zmn8FnwOJqByJN-1" vertex="1">
                    <mxGeometry x="1130" y="70" width="1010" height="570" as="geometry"/>
                </mxCell>
                <mxCell id="pvvVL7XVOMvlRUpM8crP-49" value="" style="rounded=0;whiteSpace=wrap;html=1;fontSize=12;" parent="vktTR3Zmn8FnwOJqByJN-1" vertex="1">
                    <mxGeometry x="-30" y="100" width="980" height="550" as="geometry"/>
                </mxCell>
                <mxCell id="vktTR3Zmn8FnwOJqByJN-4" value="" style="group;fontStyle=0;fillColor=#dae8fc;strokeColor=#6c8ebf;" parent="vktTR3Zmn8FnwOJqByJN-1" vertex="1" connectable="0">
                    <mxGeometry x="230" y="120" width="160" height="80" as="geometry"/>
                </mxCell>
                <mxCell id="vktTR3Zmn8FnwOJqByJN-2" value="" style="rounded=0;whiteSpace=wrap;html=1;fillColor=#dae8fc;strokeColor=#6c8ebf;" parent="vktTR3Zmn8FnwOJqByJN-4" vertex="1">
                    <mxGeometry width="160" height="80" as="geometry"/>
                </mxCell>
                <mxCell id="vktTR3Zmn8FnwOJqByJN-3" value="UI-Design-Client" style="rounded=1;whiteSpace=wrap;html=1;fontStyle=1" parent="vktTR3Zmn8FnwOJqByJN-4" vertex="1">
                    <mxGeometry x="20" y="10" width="120" height="60" as="geometry"/>
                </mxCell>
                <mxCell id="vktTR3Zmn8FnwOJqByJN-5" value="" style="group;fontStyle=0;fillColor=#f8cecc;strokeColor=#b85450;fontSize=11;" parent="vktTR3Zmn8FnwOJqByJN-1" vertex="1" connectable="0">
                    <mxGeometry x="180" y="310" width="430" height="210" as="geometry"/>
                </mxCell>
                <mxCell id="vktTR3Zmn8FnwOJqByJN-6" value="" style="rounded=0;whiteSpace=wrap;html=1;fillColor=#f8cecc;strokeColor=#b85450;" parent="vktTR3Zmn8FnwOJqByJN-5" vertex="1">
                    <mxGeometry width="430" height="210" as="geometry"/>
                </mxCell>
                <mxCell id="vktTR3Zmn8FnwOJqByJN-8" value="UI-Design-Server" style="text;html=1;strokeColor=none;fillColor=none;align=center;verticalAlign=middle;whiteSpace=wrap;rounded=0;fontSize=16;fontStyle=1" parent="vktTR3Zmn8FnwOJqByJN-5" vertex="1">
                    <mxGeometry x="95.625" y="15.000000000000004" width="148.75" height="30.000000000000007" as="geometry"/>
                </mxCell>
                <mxCell id="vktTR3Zmn8FnwOJqByJN-21" style="edgeStyle=orthogonalEdgeStyle;rounded=0;orthogonalLoop=1;jettySize=auto;html=1;exitX=1;exitY=0.5;exitDx=0;exitDy=0;entryX=0;entryY=0.5;entryDx=0;entryDy=0;fontSize=12;" parent="vktTR3Zmn8FnwOJqByJN-5" source="vktTR3Zmn8FnwOJqByJN-12" target="vktTR3Zmn8FnwOJqByJN-16" edge="1">
                    <mxGeometry relative="1" as="geometry"/>
                </mxCell>
                <mxCell id="vktTR3Zmn8FnwOJqByJN-12" value="Service Component Controller" style="rounded=1;whiteSpace=wrap;html=1;fontSize=12;" parent="vktTR3Zmn8FnwOJqByJN-5" vertex="1">
                    <mxGeometry x="10" y="58.33333333333334" width="120" height="58.33333333333334" as="geometry"/>
                </mxCell>
                <mxCell id="vktTR3Zmn8FnwOJqByJN-14" value="Code Parser&lt;br&gt;(Syntax Tree)" style="rounded=1;whiteSpace=wrap;html=1;fontSize=12;" parent="vktTR3Zmn8FnwOJqByJN-5" vertex="1">
                    <mxGeometry x="230" y="146.67000000000002" width="90" height="58.33333333333334" as="geometry"/>
                </mxCell>
                <mxCell id="vktTR3Zmn8FnwOJqByJN-18" style="edgeStyle=orthogonalEdgeStyle;rounded=0;orthogonalLoop=1;jettySize=auto;html=1;exitX=0.5;exitY=1;exitDx=0;exitDy=0;entryX=0.5;entryY=0;entryDx=0;entryDy=0;fontSize=12;dashed=1;" parent="vktTR3Zmn8FnwOJqByJN-5" source="vktTR3Zmn8FnwOJqByJN-16" target="vktTR3Zmn8FnwOJqByJN-14" edge="1">
                    <mxGeometry relative="1" as="geometry"/>
                </mxCell>
                <mxCell id="vktTR3Zmn8FnwOJqByJN-19" style="edgeStyle=orthogonalEdgeStyle;rounded=0;orthogonalLoop=1;jettySize=auto;html=1;exitX=0.25;exitY=1;exitDx=0;exitDy=0;fontSize=12;dashed=1;" parent="vktTR3Zmn8FnwOJqByJN-5" source="vktTR3Zmn8FnwOJqByJN-16" target="vktTR3Zmn8FnwOJqByJN-17" edge="1">
                    <mxGeometry relative="1" as="geometry">
                        <Array as="points">
                            <mxPoint x="253" y="128.33333333333334"/>
                            <mxPoint x="175" y="128.33333333333334"/>
                        </Array>
                    </mxGeometry>
                </mxCell>
                <mxCell id="vktTR3Zmn8FnwOJqByJN-26" style="edgeStyle=orthogonalEdgeStyle;rounded=0;orthogonalLoop=1;jettySize=auto;html=1;exitX=0.75;exitY=1;exitDx=0;exitDy=0;entryX=0.5;entryY=0;entryDx=0;entryDy=0;fontSize=12;dashed=1;" parent="vktTR3Zmn8FnwOJqByJN-5" source="vktTR3Zmn8FnwOJqByJN-16" target="vktTR3Zmn8FnwOJqByJN-25" edge="1">
                    <mxGeometry relative="1" as="geometry">
                        <Array as="points">
                            <mxPoint x="298" y="127"/>
                            <mxPoint x="375" y="127"/>
                        </Array>
                    </mxGeometry>
                </mxCell>
                <mxCell id="vktTR3Zmn8FnwOJqByJN-16" value="EditServiceUtil" style="rounded=1;whiteSpace=wrap;html=1;fontSize=12;" parent="vktTR3Zmn8FnwOJqByJN-5" vertex="1">
                    <mxGeometry x="230" y="58.33333333333334" width="90" height="58.33333333333334" as="geometry"/>
                </mxCell>
                <mxCell id="vktTR3Zmn8FnwOJqByJN-17" value="Code Gen" style="rounded=1;whiteSpace=wrap;html=1;fontSize=12;arcSize=14;" parent="vktTR3Zmn8FnwOJqByJN-5" vertex="1">
                    <mxGeometry x="130" y="151.67" width="90" height="48.33" as="geometry"/>
                </mxCell>
                <mxCell id="vktTR3Zmn8FnwOJqByJN-25" value="JenkinsUtil" style="rounded=1;whiteSpace=wrap;html=1;fontSize=12;" parent="vktTR3Zmn8FnwOJqByJN-5" vertex="1">
                    <mxGeometry x="330" y="146.67000000000002" width="90" height="58.33333333333334" as="geometry"/>
                </mxCell>
                <mxCell id="vktTR3Zmn8FnwOJqByJN-11" value="&lt;font color=&quot;#ff3333&quot;&gt;EditService Request&lt;br&gt;&lt;/font&gt;data: {&lt;br&gt;&amp;nbsp; &amp;nbsp; mode: edit,&lt;br&gt;&amp;nbsp; &amp;nbsp; code: method,&lt;br&gt;&amp;nbsp; &amp;nbsp; projectName,&lt;br&gt;&amp;nbsp; &amp;nbsp; className,&lt;br&gt;&amp;nbsp; &amp;nbsp; originalServiceID&lt;br&gt;}" style="text;html=1;strokeColor=none;fillColor=none;align=left;verticalAlign=middle;whiteSpace=wrap;rounded=0;fontSize=16;" parent="vktTR3Zmn8FnwOJqByJN-1" vertex="1">
                    <mxGeometry x="10" y="210" width="230" height="50" as="geometry"/>
                </mxCell>
                <mxCell id="vktTR3Zmn8FnwOJqByJN-13" style="edgeStyle=orthogonalEdgeStyle;rounded=0;orthogonalLoop=1;jettySize=auto;html=1;exitX=0.5;exitY=1;exitDx=0;exitDy=0;entryX=0;entryY=0.5;entryDx=0;entryDy=0;fontSize=12;" parent="vktTR3Zmn8FnwOJqByJN-1" source="vktTR3Zmn8FnwOJqByJN-3" target="vktTR3Zmn8FnwOJqByJN-12" edge="1">
                    <mxGeometry relative="1" as="geometry"/>
                </mxCell>
                <mxCell id="vktTR3Zmn8FnwOJqByJN-22" value="InventorySystem" style="rounded=0;whiteSpace=wrap;html=1;fontSize=12;fillColor=#f5f5f5;strokeColor=#666666;fontColor=#333333;" parent="vktTR3Zmn8FnwOJqByJN-1" vertex="1">
                    <mxGeometry x="295" y="570" width="120" height="60" as="geometry"/>
                </mxCell>
                <mxCell id="vktTR3Zmn8FnwOJqByJN-23" style="edgeStyle=orthogonalEdgeStyle;rounded=0;orthogonalLoop=1;jettySize=auto;html=1;exitX=0.5;exitY=1;exitDx=0;exitDy=0;fontSize=12;" parent="vktTR3Zmn8FnwOJqByJN-1" source="vktTR3Zmn8FnwOJqByJN-17" target="vktTR3Zmn8FnwOJqByJN-22" edge="1">
                    <mxGeometry relative="1" as="geometry"/>
                </mxCell>
                <mxCell id="vktTR3Zmn8FnwOJqByJN-24" value="eg: Rewrite the class file" style="text;html=1;strokeColor=none;fillColor=none;align=center;verticalAlign=middle;whiteSpace=wrap;rounded=0;fontSize=12;" parent="vktTR3Zmn8FnwOJqByJN-1" vertex="1">
                    <mxGeometry x="390" y="540" width="150" height="20" as="geometry"/>
                </mxCell>
                <mxCell id="XQVzfHc14k6YiokX66sC-2" style="edgeStyle=orthogonalEdgeStyle;rounded=0;orthogonalLoop=1;jettySize=auto;html=1;exitX=0.5;exitY=1;exitDx=0;exitDy=0;entryX=1;entryY=0.5;entryDx=0;entryDy=0;fontSize=16;startArrow=classic;startFill=1;endArrow=none;endFill=0;startSize=12;endSize=6;" parent="vktTR3Zmn8FnwOJqByJN-1" source="vktTR3Zmn8FnwOJqByJN-28" target="vktTR3Zmn8FnwOJqByJN-22" edge="1">
                    <mxGeometry relative="1" as="geometry"/>
                </mxCell>
                <mxCell id="XQVzfHc14k6YiokX66sC-4" style="edgeStyle=orthogonalEdgeStyle;rounded=0;orthogonalLoop=1;jettySize=auto;html=1;exitX=1;exitY=0.5;exitDx=0;exitDy=0;entryX=0.5;entryY=0;entryDx=0;entryDy=0;entryPerimeter=0;fontSize=16;startArrow=none;startFill=0;endArrow=classic;endFill=1;startSize=12;endSize=6;" parent="vktTR3Zmn8FnwOJqByJN-1" source="vktTR3Zmn8FnwOJqByJN-28" target="XQVzfHc14k6YiokX66sC-3" edge="1">
                    <mxGeometry relative="1" as="geometry"/>
                </mxCell>
                <mxCell id="vktTR3Zmn8FnwOJqByJN-28" value="Add/Edit Service Pipeline" style="rounded=0;whiteSpace=wrap;html=1;fontSize=12;fillColor=#fff2cc;strokeColor=#d6b656;" parent="vktTR3Zmn8FnwOJqByJN-1" vertex="1">
                    <mxGeometry x="650" y="455" width="170" height="60" as="geometry"/>
                </mxCell>
                <mxCell id="vktTR3Zmn8FnwOJqByJN-29" style="edgeStyle=orthogonalEdgeStyle;rounded=0;orthogonalLoop=1;jettySize=auto;html=1;exitX=1;exitY=0.5;exitDx=0;exitDy=0;dashed=1;fontSize=12;" parent="vktTR3Zmn8FnwOJqByJN-1" source="vktTR3Zmn8FnwOJqByJN-25" target="vktTR3Zmn8FnwOJqByJN-28" edge="1">
                    <mxGeometry relative="1" as="geometry"/>
                </mxCell>
                <mxCell id="vktTR3Zmn8FnwOJqByJN-30" style="edgeStyle=orthogonalEdgeStyle;rounded=0;orthogonalLoop=1;jettySize=auto;html=1;exitX=0.75;exitY=1;exitDx=0;exitDy=0;entryX=0.75;entryY=0;entryDx=0;entryDy=0;fontSize=12;startArrow=classic;startFill=1;fillColor=#f8cecc;strokeColor=#b85450;" parent="vktTR3Zmn8FnwOJqByJN-1" source="vktTR3Zmn8FnwOJqByJN-3" target="vktTR3Zmn8FnwOJqByJN-25" edge="1">
                    <mxGeometry relative="1" as="geometry">
                        <Array as="points">
                            <mxPoint x="340" y="280"/>
                            <mxPoint x="578" y="280"/>
                        </Array>
                    </mxGeometry>
                </mxCell>
                <mxCell id="vktTR3Zmn8FnwOJqByJN-31" value="Polling for pipeline stages status" style="text;html=1;strokeColor=none;fillColor=none;align=center;verticalAlign=middle;whiteSpace=wrap;rounded=0;fontSize=12;fontStyle=1" parent="vktTR3Zmn8FnwOJqByJN-1" vertex="1">
                    <mxGeometry x="410" y="250" width="195" height="20" as="geometry"/>
                </mxCell>
                <mxCell id="pvvVL7XVOMvlRUpM8crP-25" value="" style="group;fontStyle=0;fillColor=#dae8fc;strokeColor=#6c8ebf;" parent="vktTR3Zmn8FnwOJqByJN-1" vertex="1" connectable="0">
                    <mxGeometry x="1410" y="110" width="160" height="80" as="geometry"/>
                </mxCell>
                <mxCell id="pvvVL7XVOMvlRUpM8crP-26" value="" style="rounded=0;whiteSpace=wrap;html=1;fillColor=#dae8fc;strokeColor=#6c8ebf;" parent="pvvVL7XVOMvlRUpM8crP-25" vertex="1">
                    <mxGeometry width="160" height="80" as="geometry"/>
                </mxCell>
                <mxCell id="pvvVL7XVOMvlRUpM8crP-27" value="UI-Design-Client" style="rounded=1;whiteSpace=wrap;html=1;fontStyle=1" parent="pvvVL7XVOMvlRUpM8crP-25" vertex="1">
                    <mxGeometry x="20" y="10" width="120" height="60" as="geometry"/>
                </mxCell>
                <mxCell id="pvvVL7XVOMvlRUpM8crP-28" value="" style="group;fontStyle=0;fillColor=#f8cecc;strokeColor=#b85450;fontSize=11;" parent="vktTR3Zmn8FnwOJqByJN-1" vertex="1" connectable="0">
                    <mxGeometry x="1360" y="300" width="430" height="210" as="geometry"/>
                </mxCell>
                <mxCell id="pvvVL7XVOMvlRUpM8crP-29" value="" style="rounded=0;whiteSpace=wrap;html=1;fillColor=#f8cecc;strokeColor=#b85450;" parent="pvvVL7XVOMvlRUpM8crP-28" vertex="1">
                    <mxGeometry width="430" height="210" as="geometry"/>
                </mxCell>
                <mxCell id="pvvVL7XVOMvlRUpM8crP-30" value="UI-Design-Server" style="text;html=1;strokeColor=none;fillColor=none;align=center;verticalAlign=middle;whiteSpace=wrap;rounded=0;fontSize=16;fontStyle=1" parent="pvvVL7XVOMvlRUpM8crP-28" vertex="1">
                    <mxGeometry x="95.625" y="15.000000000000004" width="148.75" height="30.000000000000007" as="geometry"/>
                </mxCell>
                <mxCell id="pvvVL7XVOMvlRUpM8crP-31" style="edgeStyle=orthogonalEdgeStyle;rounded=0;orthogonalLoop=1;jettySize=auto;html=1;exitX=1;exitY=0.5;exitDx=0;exitDy=0;entryX=0;entryY=0.5;entryDx=0;entryDy=0;fontSize=12;" parent="pvvVL7XVOMvlRUpM8crP-28" source="pvvVL7XVOMvlRUpM8crP-32" target="pvvVL7XVOMvlRUpM8crP-37" edge="1">
                    <mxGeometry relative="1" as="geometry"/>
                </mxCell>
                <mxCell id="pvvVL7XVOMvlRUpM8crP-32" value="Service Component Controller" style="rounded=1;whiteSpace=wrap;html=1;fontSize=12;" parent="pvvVL7XVOMvlRUpM8crP-28" vertex="1">
                    <mxGeometry x="10" y="58.33333333333334" width="120" height="58.33333333333334" as="geometry"/>
                </mxCell>
                <mxCell id="pvvVL7XVOMvlRUpM8crP-33" value="Code Parser&lt;br&gt;(Syntax Tree)" style="rounded=1;whiteSpace=wrap;html=1;fontSize=12;" parent="pvvVL7XVOMvlRUpM8crP-28" vertex="1">
                    <mxGeometry x="230" y="146.67000000000002" width="90" height="58.33333333333334" as="geometry"/>
                </mxCell>
                <mxCell id="pvvVL7XVOMvlRUpM8crP-34" style="edgeStyle=orthogonalEdgeStyle;rounded=0;orthogonalLoop=1;jettySize=auto;html=1;exitX=0.5;exitY=1;exitDx=0;exitDy=0;entryX=0.5;entryY=0;entryDx=0;entryDy=0;fontSize=12;dashed=1;" parent="pvvVL7XVOMvlRUpM8crP-28" source="pvvVL7XVOMvlRUpM8crP-37" target="pvvVL7XVOMvlRUpM8crP-33" edge="1">
                    <mxGeometry relative="1" as="geometry"/>
                </mxCell>
                <mxCell id="pvvVL7XVOMvlRUpM8crP-35" style="edgeStyle=orthogonalEdgeStyle;rounded=0;orthogonalLoop=1;jettySize=auto;html=1;exitX=0.25;exitY=1;exitDx=0;exitDy=0;fontSize=12;dashed=1;" parent="pvvVL7XVOMvlRUpM8crP-28" source="pvvVL7XVOMvlRUpM8crP-37" target="pvvVL7XVOMvlRUpM8crP-38" edge="1">
                    <mxGeometry relative="1" as="geometry">
                        <Array as="points">
                            <mxPoint x="253" y="128.33333333333334"/>
                            <mxPoint x="175" y="128.33333333333334"/>
                        </Array>
                    </mxGeometry>
                </mxCell>
                <mxCell id="pvvVL7XVOMvlRUpM8crP-36" style="edgeStyle=orthogonalEdgeStyle;rounded=0;orthogonalLoop=1;jettySize=auto;html=1;exitX=0.75;exitY=1;exitDx=0;exitDy=0;entryX=0.5;entryY=0;entryDx=0;entryDy=0;fontSize=12;dashed=1;" parent="pvvVL7XVOMvlRUpM8crP-28" source="pvvVL7XVOMvlRUpM8crP-37" target="pvvVL7XVOMvlRUpM8crP-39" edge="1">
                    <mxGeometry relative="1" as="geometry">
                        <Array as="points">
                            <mxPoint x="298" y="127"/>
                            <mxPoint x="375" y="127"/>
                        </Array>
                    </mxGeometry>
                </mxCell>
                <mxCell id="pvvVL7XVOMvlRUpM8crP-37" value="AddServiceUtil" style="rounded=1;whiteSpace=wrap;html=1;fontSize=12;" parent="pvvVL7XVOMvlRUpM8crP-28" vertex="1">
                    <mxGeometry x="230" y="58.33333333333334" width="90" height="58.33333333333334" as="geometry"/>
                </mxCell>
                <mxCell id="pvvVL7XVOMvlRUpM8crP-38" value="Code Gen" style="rounded=1;whiteSpace=wrap;html=1;fontSize=12;arcSize=14;" parent="pvvVL7XVOMvlRUpM8crP-28" vertex="1">
                    <mxGeometry x="130" y="151.67" width="90" height="48.33" as="geometry"/>
                </mxCell>
                <mxCell id="pvvVL7XVOMvlRUpM8crP-39" value="JenkinsUtil" style="rounded=1;whiteSpace=wrap;html=1;fontSize=12;" parent="pvvVL7XVOMvlRUpM8crP-28" vertex="1">
                    <mxGeometry x="330" y="146.67000000000002" width="90" height="58.33333333333334" as="geometry"/>
                </mxCell>
                <mxCell id="pvvVL7XVOMvlRUpM8crP-40" value="&lt;font color=&quot;#ff3333&quot;&gt;AddService Request&lt;br&gt;&lt;/font&gt;data: {&lt;br&gt;&amp;nbsp; &amp;nbsp; mode: add,&lt;br&gt;&amp;nbsp; &amp;nbsp; code: class,&lt;br&gt;}" style="text;html=1;strokeColor=none;fillColor=none;align=left;verticalAlign=middle;whiteSpace=wrap;rounded=0;fontSize=16;" parent="vktTR3Zmn8FnwOJqByJN-1" vertex="1">
                    <mxGeometry x="1190" y="200" width="230" height="50" as="geometry"/>
                </mxCell>
                <mxCell id="pvvVL7XVOMvlRUpM8crP-41" style="edgeStyle=orthogonalEdgeStyle;rounded=0;orthogonalLoop=1;jettySize=auto;html=1;exitX=0.5;exitY=1;exitDx=0;exitDy=0;entryX=0;entryY=0.5;entryDx=0;entryDy=0;fontSize=12;" parent="vktTR3Zmn8FnwOJqByJN-1" source="pvvVL7XVOMvlRUpM8crP-27" target="pvvVL7XVOMvlRUpM8crP-32" edge="1">
                    <mxGeometry relative="1" as="geometry"/>
                </mxCell>
                <mxCell id="pvvVL7XVOMvlRUpM8crP-42" value="InventorySystem" style="rounded=0;whiteSpace=wrap;html=1;fontSize=12;fillColor=#f5f5f5;strokeColor=#666666;fontColor=#333333;" parent="vktTR3Zmn8FnwOJqByJN-1" vertex="1">
                    <mxGeometry x="1475" y="560" width="120" height="60" as="geometry"/>
                </mxCell>
                <mxCell id="pvvVL7XVOMvlRUpM8crP-43" style="edgeStyle=orthogonalEdgeStyle;rounded=0;orthogonalLoop=1;jettySize=auto;html=1;exitX=0.5;exitY=1;exitDx=0;exitDy=0;fontSize=12;" parent="vktTR3Zmn8FnwOJqByJN-1" source="pvvVL7XVOMvlRUpM8crP-38" target="pvvVL7XVOMvlRUpM8crP-42" edge="1">
                    <mxGeometry relative="1" as="geometry"/>
                </mxCell>
                <mxCell id="pvvVL7XVOMvlRUpM8crP-44" value="eg: Rewrite the class file" style="text;html=1;strokeColor=none;fillColor=none;align=center;verticalAlign=middle;whiteSpace=wrap;rounded=0;fontSize=12;" parent="vktTR3Zmn8FnwOJqByJN-1" vertex="1">
                    <mxGeometry x="1570" y="530" width="150" height="20" as="geometry"/>
                </mxCell>
                <mxCell id="XQVzfHc14k6YiokX66sC-0" style="edgeStyle=orthogonalEdgeStyle;rounded=0;orthogonalLoop=1;jettySize=auto;html=1;exitX=0.5;exitY=1;exitDx=0;exitDy=0;entryX=1;entryY=0.5;entryDx=0;entryDy=0;fontSize=16;startArrow=classic;startFill=1;endArrow=none;endFill=0;startSize=12;endSize=6;" parent="vktTR3Zmn8FnwOJqByJN-1" source="pvvVL7XVOMvlRUpM8crP-45" target="pvvVL7XVOMvlRUpM8crP-42" edge="1">
                    <mxGeometry relative="1" as="geometry"/>
                </mxCell>
                <mxCell id="XQVzfHc14k6YiokX66sC-5" style="edgeStyle=orthogonalEdgeStyle;rounded=0;orthogonalLoop=1;jettySize=auto;html=1;exitX=1;exitY=0.5;exitDx=0;exitDy=0;fontSize=16;startArrow=none;startFill=0;endArrow=classic;endFill=1;startSize=12;endSize=6;" parent="vktTR3Zmn8FnwOJqByJN-1" source="pvvVL7XVOMvlRUpM8crP-45" target="XQVzfHc14k6YiokX66sC-1" edge="1">
                    <mxGeometry relative="1" as="geometry"/>
                </mxCell>
                <mxCell id="pvvVL7XVOMvlRUpM8crP-45" value="Add/Edit Service Pipeline" style="rounded=0;whiteSpace=wrap;html=1;fontSize=12;fillColor=#fff2cc;strokeColor=#d6b656;" parent="vktTR3Zmn8FnwOJqByJN-1" vertex="1">
                    <mxGeometry x="1830" y="445" width="170" height="60" as="geometry"/>
                </mxCell>
                <mxCell id="pvvVL7XVOMvlRUpM8crP-46" style="edgeStyle=orthogonalEdgeStyle;rounded=0;orthogonalLoop=1;jettySize=auto;html=1;exitX=1;exitY=0.5;exitDx=0;exitDy=0;dashed=1;fontSize=12;" parent="vktTR3Zmn8FnwOJqByJN-1" source="pvvVL7XVOMvlRUpM8crP-39" target="pvvVL7XVOMvlRUpM8crP-45" edge="1">
                    <mxGeometry relative="1" as="geometry"/>
                </mxCell>
                <mxCell id="pvvVL7XVOMvlRUpM8crP-47" style="edgeStyle=orthogonalEdgeStyle;rounded=0;orthogonalLoop=1;jettySize=auto;html=1;exitX=0.75;exitY=1;exitDx=0;exitDy=0;entryX=0.75;entryY=0;entryDx=0;entryDy=0;fontSize=12;startArrow=classic;startFill=1;fillColor=#f8cecc;strokeColor=#b85450;" parent="vktTR3Zmn8FnwOJqByJN-1" source="pvvVL7XVOMvlRUpM8crP-27" target="pvvVL7XVOMvlRUpM8crP-39" edge="1">
                    <mxGeometry relative="1" as="geometry">
                        <Array as="points">
                            <mxPoint x="1520" y="270"/>
                            <mxPoint x="1758" y="270"/>
                        </Array>
                    </mxGeometry>
                </mxCell>
                <mxCell id="pvvVL7XVOMvlRUpM8crP-48" value="Polling for pipeline stages status" style="text;html=1;strokeColor=none;fillColor=none;align=center;verticalAlign=middle;whiteSpace=wrap;rounded=0;fontSize=12;fontStyle=1" parent="vktTR3Zmn8FnwOJqByJN-1" vertex="1">
                    <mxGeometry x="1590" y="240" width="195" height="20" as="geometry"/>
                </mxCell>
                <mxCell id="XQVzfHc14k6YiokX66sC-1" value="ServiceComponent DB" style="shape=cylinder3;whiteSpace=wrap;html=1;boundedLbl=1;backgroundOutline=1;size=15;fontSize=16;" parent="vktTR3Zmn8FnwOJqByJN-1" vertex="1">
                    <mxGeometry x="1975" y="540" width="150" height="85" as="geometry"/>
                </mxCell>
                <mxCell id="XQVzfHc14k6YiokX66sC-3" value="ServiceComponent DB" style="shape=cylinder3;whiteSpace=wrap;html=1;boundedLbl=1;backgroundOutline=1;size=15;fontSize=16;" parent="vktTR3Zmn8FnwOJqByJN-1" vertex="1">
                    <mxGeometry x="790" y="555" width="150" height="85" as="geometry"/>
                </mxCell>
            </root>
        </mxGraphModel>
    </diagram>
    <diagram id="UAwK2n0lHsrb4Up74YAJ" name="Class Diagram">
        <mxGraphModel dx="2460" dy="772" grid="1" gridSize="10" guides="1" tooltips="1" connect="1" arrows="1" fold="1" page="1" pageScale="1" pageWidth="850" pageHeight="1100" math="0" shadow="0">
            <root>
                <mxCell id="yQ9km9YLX1whWhm04vPE-0"/>
                <mxCell id="yQ9km9YLX1whWhm04vPE-1" parent="yQ9km9YLX1whWhm04vPE-0"/>
                <mxCell id="PiwdkrNxFQdpEThUTqZ6-33" value="" style="rounded=0;whiteSpace=wrap;html=1;fontSize=16;" parent="yQ9km9YLX1whWhm04vPE-1" vertex="1">
                    <mxGeometry x="-720" width="1960" height="1390" as="geometry"/>
                </mxCell>
                <mxCell id="iRR1WqVuB1gnRzlNfeI0-2" value="CodeParser" style="swimlane;fontStyle=1;childLayout=stackLayout;horizontal=1;startSize=26;fillColor=#fff2cc;horizontalStack=0;resizeParent=1;resizeParentMax=0;resizeLast=0;collapsible=1;marginBottom=0;fontSize=16;strokeColor=#d6b656;" parent="yQ9km9YLX1whWhm04vPE-1" vertex="1">
                    <mxGeometry x="310" y="470" width="310" height="260" as="geometry"/>
                </mxCell>
                <mxCell id="iRR1WqVuB1gnRzlNfeI0-3" value="- javacTool: JavacTool" style="text;strokeColor=#b85450;fillColor=#f8cecc;align=left;verticalAlign=top;spacingLeft=4;spacingRight=4;overflow=hidden;rotatable=0;points=[[0,0.5],[1,0.5]];portConstraint=eastwest;" parent="iRR1WqVuB1gnRzlNfeI0-2" vertex="1">
                    <mxGeometry y="26" width="310" height="26" as="geometry"/>
                </mxCell>
                <mxCell id="iRR1WqVuB1gnRzlNfeI0-40" value="" style="line;strokeWidth=1;fillColor=none;align=left;verticalAlign=middle;spacingTop=-1;spacingLeft=3;spacingRight=3;rotatable=0;labelPosition=right;points=[];portConstraint=eastwest;fontSize=16;" parent="iRR1WqVuB1gnRzlNfeI0-2" vertex="1">
                    <mxGeometry y="52" width="310" height="8" as="geometry"/>
                </mxCell>
                <mxCell id="iRR1WqVuB1gnRzlNfeI0-39" value="+ checkSignatureUnique(String newService, &#10;String projectName, &#10;String className): boolean" style="text;strokeColor=none;fillColor=none;align=left;verticalAlign=top;spacingLeft=4;spacingRight=4;overflow=hidden;rotatable=0;points=[[0,0.5],[1,0.5]];portConstraint=eastwest;" parent="iRR1WqVuB1gnRzlNfeI0-2" vertex="1">
                    <mxGeometry y="60" width="310" height="48" as="geometry"/>
                </mxCell>
                <mxCell id="iRR1WqVuB1gnRzlNfeI0-42" value="+ parseServiceComponent(String service): MethodTree" style="text;strokeColor=none;fillColor=none;align=left;verticalAlign=top;spacingLeft=4;spacingRight=4;overflow=hidden;rotatable=0;points=[[0,0.5],[1,0.5]];portConstraint=eastwest;" parent="iRR1WqVuB1gnRzlNfeI0-2" vertex="1">
                    <mxGeometry y="108" width="310" height="26" as="geometry"/>
                </mxCell>
                <mxCell id="iRR1WqVuB1gnRzlNfeI0-43" value="+ parseJavaFile(String path): ClassTree" style="text;strokeColor=none;fillColor=none;align=left;verticalAlign=top;spacingLeft=4;spacingRight=4;overflow=hidden;rotatable=0;points=[[0,0.5],[1,0.5]];portConstraint=eastwest;" parent="iRR1WqVuB1gnRzlNfeI0-2" vertex="1">
                    <mxGeometry y="134" width="310" height="26" as="geometry"/>
                </mxCell>
                <mxCell id="rAwbK-CSQ3moBkevqctC-85" value="+ checkIsFileExisted(String path): boolean" style="text;strokeColor=none;fillColor=none;align=left;verticalAlign=top;spacingLeft=4;spacingRight=4;overflow=hidden;rotatable=0;points=[[0,0.5],[1,0.5]];portConstraint=eastwest;" parent="iRR1WqVuB1gnRzlNfeI0-2" vertex="1">
                    <mxGeometry y="160" width="310" height="26" as="geometry"/>
                </mxCell>
                <mxCell id="rAwbK-CSQ3moBkevqctC-87" value="+ overrideService(MethodTree newService, &#10;ClassTree originClass)" style="text;strokeColor=none;fillColor=none;align=left;verticalAlign=top;spacingLeft=4;spacingRight=4;overflow=hidden;rotatable=0;points=[[0,0.5],[1,0.5]];portConstraint=eastwest;" parent="iRR1WqVuB1gnRzlNfeI0-2" vertex="1">
                    <mxGeometry y="186" width="310" height="34" as="geometry"/>
                </mxCell>
                <mxCell id="rAwbK-CSQ3moBkevqctC-88" value="+ addNewService(MethodTree newService,&#10;ClassTree originClass)" style="text;strokeColor=none;fillColor=none;align=left;verticalAlign=top;spacingLeft=4;spacingRight=4;overflow=hidden;rotatable=0;points=[[0,0.5],[1,0.5]];portConstraint=eastwest;" parent="iRR1WqVuB1gnRzlNfeI0-2" vertex="1">
                    <mxGeometry y="220" width="310" height="40" as="geometry"/>
                </mxCell>
                <mxCell id="rAwbK-CSQ3moBkevqctC-49" style="edgeStyle=none;rounded=0;orthogonalLoop=1;jettySize=auto;html=1;exitX=0.5;exitY=0;exitDx=0;exitDy=0;entryX=0.53;entryY=1;entryDx=0;entryDy=0;entryPerimeter=0;fontSize=16;startArrow=none;startFill=0;endArrow=block;endFill=0;endSize=12;" parent="yQ9km9YLX1whWhm04vPE-1" source="iRR1WqVuB1gnRzlNfeI0-22" target="c9hsdTaSiC_n7xofiwrB-42" edge="1">
                    <mxGeometry relative="1" as="geometry">
                        <Array as="points">
                            <mxPoint x="425" y="1200"/>
                            <mxPoint x="730" y="1200"/>
                        </Array>
                    </mxGeometry>
                </mxCell>
                <mxCell id="iRR1WqVuB1gnRzlNfeI0-22" value="ImportVisitor" style="swimlane;fontStyle=0;childLayout=stackLayout;horizontal=1;startSize=26;fillColor=#ffe6cc;horizontalStack=0;resizeParent=1;resizeParentMax=0;resizeLast=0;collapsible=1;marginBottom=0;fontSize=16;strokeColor=#d79b00;" parent="yQ9km9YLX1whWhm04vPE-1" vertex="1">
                    <mxGeometry x="340" y="1240" width="170" height="100" as="geometry"/>
                </mxCell>
                <mxCell id="iRR1WqVuB1gnRzlNfeI0-23" value="+ scan(Tree root,&#10;List&lt;ImportTree&gt; trees)" style="text;strokeColor=none;fillColor=none;align=left;verticalAlign=top;spacingLeft=4;spacingRight=4;overflow=hidden;rotatable=0;points=[[0,0.5],[1,0.5]];portConstraint=eastwest;" parent="iRR1WqVuB1gnRzlNfeI0-22" vertex="1">
                    <mxGeometry y="26" width="170" height="34" as="geometry"/>
                </mxCell>
                <mxCell id="iRR1WqVuB1gnRzlNfeI0-25" value="+ visitImport(ImportTree root,&#10;List&lt;ImportTree&gt; trees)" style="text;strokeColor=none;fillColor=none;align=left;verticalAlign=top;spacingLeft=4;spacingRight=4;overflow=hidden;rotatable=0;points=[[0,0.5],[1,0.5]];portConstraint=eastwest;" parent="iRR1WqVuB1gnRzlNfeI0-22" vertex="1">
                    <mxGeometry y="60" width="170" height="40" as="geometry"/>
                </mxCell>
                <mxCell id="rAwbK-CSQ3moBkevqctC-50" style="edgeStyle=none;rounded=0;orthogonalLoop=1;jettySize=auto;html=1;exitX=0.5;exitY=0;exitDx=0;exitDy=0;entryX=0.532;entryY=0.983;entryDx=0;entryDy=0;entryPerimeter=0;fontSize=16;startArrow=none;startFill=0;endArrow=block;endFill=0;endSize=12;" parent="yQ9km9YLX1whWhm04vPE-1" source="iRR1WqVuB1gnRzlNfeI0-26" target="c9hsdTaSiC_n7xofiwrB-42" edge="1">
                    <mxGeometry relative="1" as="geometry">
                        <Array as="points">
                            <mxPoint x="620" y="1200"/>
                            <mxPoint x="731" y="1200"/>
                        </Array>
                    </mxGeometry>
                </mxCell>
                <mxCell id="iRR1WqVuB1gnRzlNfeI0-26" value="ClassVisitor" style="swimlane;fontStyle=0;childLayout=stackLayout;horizontal=1;startSize=26;fillColor=#ffe6cc;horizontalStack=0;resizeParent=1;resizeParentMax=0;resizeLast=0;collapsible=1;marginBottom=0;fontSize=16;strokeColor=#d79b00;" parent="yQ9km9YLX1whWhm04vPE-1" vertex="1">
                    <mxGeometry x="520" y="1240" width="200" height="100" as="geometry"/>
                </mxCell>
                <mxCell id="iRR1WqVuB1gnRzlNfeI0-27" value="+ scan(Tree root, &#10;List&lt;ClassTree&gt; trees)" style="text;strokeColor=none;fillColor=none;align=left;verticalAlign=top;spacingLeft=4;spacingRight=4;overflow=hidden;rotatable=0;points=[[0,0.5],[1,0.5]];portConstraint=eastwest;" parent="iRR1WqVuB1gnRzlNfeI0-26" vertex="1">
                    <mxGeometry y="26" width="200" height="34" as="geometry"/>
                </mxCell>
                <mxCell id="iRR1WqVuB1gnRzlNfeI0-29" value="+ visitClass(ClassTree root,&#10;List&lt;ClassTree&gt; trees)" style="text;strokeColor=none;fillColor=none;align=left;verticalAlign=top;spacingLeft=4;spacingRight=4;overflow=hidden;rotatable=0;points=[[0,0.5],[1,0.5]];portConstraint=eastwest;" parent="iRR1WqVuB1gnRzlNfeI0-26" vertex="1">
                    <mxGeometry y="60" width="200" height="40" as="geometry"/>
                </mxCell>
                <mxCell id="rAwbK-CSQ3moBkevqctC-52" style="edgeStyle=none;rounded=0;orthogonalLoop=1;jettySize=auto;html=1;exitX=0.5;exitY=0;exitDx=0;exitDy=0;entryX=0.528;entryY=0.983;entryDx=0;entryDy=0;entryPerimeter=0;fontSize=16;startArrow=none;startFill=0;endArrow=block;endFill=0;endSize=12;" parent="yQ9km9YLX1whWhm04vPE-1" source="iRR1WqVuB1gnRzlNfeI0-30" target="c9hsdTaSiC_n7xofiwrB-42" edge="1">
                    <mxGeometry relative="1" as="geometry">
                        <Array as="points">
                            <mxPoint x="1005" y="1200"/>
                            <mxPoint x="729" y="1200"/>
                        </Array>
                    </mxGeometry>
                </mxCell>
                <mxCell id="iRR1WqVuB1gnRzlNfeI0-30" value="MethodVisitor" style="swimlane;fontStyle=0;childLayout=stackLayout;horizontal=1;startSize=26;fillColor=#ffe6cc;horizontalStack=0;resizeParent=1;resizeParentMax=0;resizeLast=0;collapsible=1;marginBottom=0;fontSize=16;strokeColor=#d79b00;" parent="yQ9km9YLX1whWhm04vPE-1" vertex="1">
                    <mxGeometry x="930" y="1240" width="150" height="100" as="geometry"/>
                </mxCell>
                <mxCell id="iRR1WqVuB1gnRzlNfeI0-31" value="+ scan (Tree root,&#10;List&lt;MethodTree&gt; trees)" style="text;strokeColor=none;fillColor=none;align=left;verticalAlign=top;spacingLeft=4;spacingRight=4;overflow=hidden;rotatable=0;points=[[0,0.5],[1,0.5]];portConstraint=eastwest;" parent="iRR1WqVuB1gnRzlNfeI0-30" vertex="1">
                    <mxGeometry y="26" width="150" height="34" as="geometry"/>
                </mxCell>
                <mxCell id="iRR1WqVuB1gnRzlNfeI0-33" value="+ visitMethod(MethodTree root,&#10;List&lt;MethodTree&gt; trees)" style="text;strokeColor=none;fillColor=none;align=left;verticalAlign=top;spacingLeft=4;spacingRight=4;overflow=hidden;rotatable=0;points=[[0,0.5],[1,0.5]];portConstraint=eastwest;" parent="iRR1WqVuB1gnRzlNfeI0-30" vertex="1">
                    <mxGeometry y="60" width="150" height="40" as="geometry"/>
                </mxCell>
                <mxCell id="c9hsdTaSiC_n7xofiwrB-0" value="CodeGen" style="swimlane;fontStyle=1;childLayout=stackLayout;horizontal=1;startSize=26;fillColor=#fff2cc;horizontalStack=0;resizeParent=1;resizeParentMax=0;resizeLast=0;collapsible=1;marginBottom=0;fontSize=16;strokeColor=#d6b656;" parent="yQ9km9YLX1whWhm04vPE-1" vertex="1">
                    <mxGeometry x="730" y="470" width="250" height="164" as="geometry"/>
                </mxCell>
                <mxCell id="c9hsdTaSiC_n7xofiwrB-1" value="- projectName: string" style="text;strokeColor=none;fillColor=none;align=left;verticalAlign=top;spacingLeft=4;spacingRight=4;overflow=hidden;rotatable=0;points=[[0,0.5],[1,0.5]];portConstraint=eastwest;" parent="c9hsdTaSiC_n7xofiwrB-0" vertex="1">
                    <mxGeometry y="26" width="250" height="26" as="geometry"/>
                </mxCell>
                <mxCell id="c9hsdTaSiC_n7xofiwrB-2" value="- className: string" style="text;strokeColor=none;fillColor=none;align=left;verticalAlign=top;spacingLeft=4;spacingRight=4;overflow=hidden;rotatable=0;points=[[0,0.5],[1,0.5]];portConstraint=eastwest;" parent="c9hsdTaSiC_n7xofiwrB-0" vertex="1">
                    <mxGeometry y="52" width="250" height="26" as="geometry"/>
                </mxCell>
                <mxCell id="c9hsdTaSiC_n7xofiwrB-6" value="- mode: Enum&lt;Mode&gt;" style="text;strokeColor=none;fillColor=none;align=left;verticalAlign=top;spacingLeft=4;spacingRight=4;overflow=hidden;rotatable=0;points=[[0,0.5],[1,0.5]];portConstraint=eastwest;" parent="c9hsdTaSiC_n7xofiwrB-0" vertex="1">
                    <mxGeometry y="78" width="250" height="26" as="geometry"/>
                </mxCell>
                <mxCell id="c9hsdTaSiC_n7xofiwrB-4" value="" style="line;strokeWidth=1;fillColor=none;align=left;verticalAlign=middle;spacingTop=-1;spacingLeft=3;spacingRight=3;rotatable=0;labelPosition=right;points=[];portConstraint=eastwest;fontSize=16;" parent="c9hsdTaSiC_n7xofiwrB-0" vertex="1">
                    <mxGeometry y="104" width="250" height="8" as="geometry"/>
                </mxCell>
                <mxCell id="c9hsdTaSiC_n7xofiwrB-3" value="+ genJavaFile(String code, String path)" style="text;strokeColor=none;fillColor=none;align=left;verticalAlign=top;spacingLeft=4;spacingRight=4;overflow=hidden;rotatable=0;points=[[0,0.5],[1,0.5]];portConstraint=eastwest;" parent="c9hsdTaSiC_n7xofiwrB-0" vertex="1">
                    <mxGeometry y="112" width="250" height="26" as="geometry"/>
                </mxCell>
                <mxCell id="c9hsdTaSiC_n7xofiwrB-5" value="+ doGitVersionControl(String projectName)" style="text;strokeColor=none;fillColor=none;align=left;verticalAlign=top;spacingLeft=4;spacingRight=4;overflow=hidden;rotatable=0;points=[[0,0.5],[1,0.5]];portConstraint=eastwest;" parent="c9hsdTaSiC_n7xofiwrB-0" vertex="1">
                    <mxGeometry y="138" width="250" height="26" as="geometry"/>
                </mxCell>
                <mxCell id="c9hsdTaSiC_n7xofiwrB-7" value="Enum&lt;Mode&gt;" style="swimlane;fontStyle=0;childLayout=stackLayout;horizontal=1;startSize=26;fillColor=none;horizontalStack=0;resizeParent=1;resizeParentMax=0;resizeLast=0;collapsible=1;marginBottom=0;" parent="yQ9km9YLX1whWhm04vPE-1" vertex="1">
                    <mxGeometry x="1070" y="590" width="140" height="78" as="geometry"/>
                </mxCell>
                <mxCell id="c9hsdTaSiC_n7xofiwrB-8" value="ADD_SERVICE" style="text;strokeColor=none;fillColor=none;align=left;verticalAlign=top;spacingLeft=4;spacingRight=4;overflow=hidden;rotatable=0;points=[[0,0.5],[1,0.5]];portConstraint=eastwest;" parent="c9hsdTaSiC_n7xofiwrB-7" vertex="1">
                    <mxGeometry y="26" width="140" height="26" as="geometry"/>
                </mxCell>
                <mxCell id="c9hsdTaSiC_n7xofiwrB-9" value="EDIT_SERVICE" style="text;strokeColor=none;fillColor=none;align=left;verticalAlign=top;spacingLeft=4;spacingRight=4;overflow=hidden;rotatable=0;points=[[0,0.5],[1,0.5]];portConstraint=eastwest;" parent="c9hsdTaSiC_n7xofiwrB-7" vertex="1">
                    <mxGeometry y="52" width="140" height="26" as="geometry"/>
                </mxCell>
                <mxCell id="c9hsdTaSiC_n7xofiwrB-11" style="edgeStyle=orthogonalEdgeStyle;rounded=0;orthogonalLoop=1;jettySize=auto;html=1;exitX=1;exitY=0.5;exitDx=0;exitDy=0;entryX=0.5;entryY=0;entryDx=0;entryDy=0;" parent="yQ9km9YLX1whWhm04vPE-1" source="c9hsdTaSiC_n7xofiwrB-6" target="c9hsdTaSiC_n7xofiwrB-7" edge="1">
                    <mxGeometry relative="1" as="geometry"/>
                </mxCell>
                <mxCell id="c9hsdTaSiC_n7xofiwrB-16" value="EditServiceComponentService" style="swimlane;fontStyle=1;childLayout=stackLayout;horizontal=1;startSize=26;fillColor=#fff2cc;horizontalStack=0;resizeParent=1;resizeParentMax=0;resizeLast=0;collapsible=1;marginBottom=0;strokeColor=#d6b656;" parent="yQ9km9YLX1whWhm04vPE-1" vertex="1">
                    <mxGeometry x="750" y="170" width="220" height="226" as="geometry"/>
                </mxCell>
                <mxCell id="c9hsdTaSiC_n7xofiwrB-17" value="- projectName: string" style="text;strokeColor=none;fillColor=none;align=left;verticalAlign=top;spacingLeft=4;spacingRight=4;overflow=hidden;rotatable=0;points=[[0,0.5],[1,0.5]];portConstraint=eastwest;" parent="c9hsdTaSiC_n7xofiwrB-16" vertex="1">
                    <mxGeometry y="26" width="220" height="26" as="geometry"/>
                </mxCell>
                <mxCell id="c9hsdTaSiC_n7xofiwrB-56" value="- className: string" style="text;strokeColor=none;fillColor=none;align=left;verticalAlign=top;spacingLeft=4;spacingRight=4;overflow=hidden;rotatable=0;points=[[0,0.5],[1,0.5]];portConstraint=eastwest;" parent="c9hsdTaSiC_n7xofiwrB-16" vertex="1">
                    <mxGeometry y="52" width="220" height="26" as="geometry"/>
                </mxCell>
                <mxCell id="c9hsdTaSiC_n7xofiwrB-61" value="- originalServiceID: string" style="text;strokeColor=none;fillColor=none;align=left;verticalAlign=top;spacingLeft=4;spacingRight=4;overflow=hidden;rotatable=0;points=[[0,0.5],[1,0.5]];portConstraint=eastwest;" parent="c9hsdTaSiC_n7xofiwrB-16" vertex="1">
                    <mxGeometry y="78" width="220" height="26" as="geometry"/>
                </mxCell>
                <mxCell id="c9hsdTaSiC_n7xofiwrB-62" value="- newServiceCode: string" style="text;strokeColor=none;fillColor=none;align=left;verticalAlign=top;spacingLeft=4;spacingRight=4;overflow=hidden;rotatable=0;points=[[0,0.5],[1,0.5]];portConstraint=eastwest;" parent="c9hsdTaSiC_n7xofiwrB-16" vertex="1">
                    <mxGeometry y="104" width="220" height="26" as="geometry"/>
                </mxCell>
                <mxCell id="c9hsdTaSiC_n7xofiwrB-55" value="" style="line;strokeWidth=1;fillColor=none;align=left;verticalAlign=middle;spacingTop=-1;spacingLeft=3;spacingRight=3;rotatable=0;labelPosition=right;points=[];portConstraint=eastwest;fontSize=16;" parent="c9hsdTaSiC_n7xofiwrB-16" vertex="1">
                    <mxGeometry y="130" width="220" height="8" as="geometry"/>
                </mxCell>
                <mxCell id="c9hsdTaSiC_n7xofiwrB-63" value="+ initialize(projectName,&#10;className,&#10;originalServiceID,&#10;newServiceCode)" style="text;strokeColor=none;fillColor=none;align=left;verticalAlign=top;spacingLeft=4;spacingRight=4;overflow=hidden;rotatable=0;points=[[0,0.5],[1,0.5]];portConstraint=eastwest;" parent="c9hsdTaSiC_n7xofiwrB-16" vertex="1">
                    <mxGeometry y="138" width="220" height="62" as="geometry"/>
                </mxCell>
                <mxCell id="c9hsdTaSiC_n7xofiwrB-18" value="+ editServiceComponent()" style="text;strokeColor=none;fillColor=none;align=left;verticalAlign=top;spacingLeft=4;spacingRight=4;overflow=hidden;rotatable=0;points=[[0,0.5],[1,0.5]];portConstraint=eastwest;" parent="c9hsdTaSiC_n7xofiwrB-16" vertex="1">
                    <mxGeometry y="200" width="220" height="26" as="geometry"/>
                </mxCell>
                <mxCell id="rAwbK-CSQ3moBkevqctC-10" style="edgeStyle=none;rounded=0;orthogonalLoop=1;jettySize=auto;html=1;exitX=0.5;exitY=0;exitDx=0;exitDy=0;entryX=0.5;entryY=1;entryDx=0;entryDy=0;endArrow=block;endFill=0;endSize=12;" parent="yQ9km9YLX1whWhm04vPE-1" source="c9hsdTaSiC_n7xofiwrB-20" target="c9hsdTaSiC_n7xofiwrB-38" edge="1">
                    <mxGeometry relative="1" as="geometry"/>
                </mxCell>
                <mxCell id="c9hsdTaSiC_n7xofiwrB-20" value="TreeScanner" style="swimlane;fontStyle=0;childLayout=stackLayout;horizontal=1;startSize=26;fillColor=#ffe6cc;horizontalStack=0;resizeParent=1;resizeParentMax=0;resizeLast=0;collapsible=1;marginBottom=0;fontSize=16;strokeColor=#d79b00;" parent="yQ9km9YLX1whWhm04vPE-1" vertex="1">
                    <mxGeometry x="555" y="740" width="330" height="390" as="geometry"/>
                </mxCell>
                <mxCell id="c9hsdTaSiC_n7xofiwrB-23" value="+ visitCompilationUnit(CompilationUnitTree node, P p)" style="text;strokeColor=none;fillColor=none;align=left;verticalAlign=top;spacingLeft=4;spacingRight=4;overflow=hidden;rotatable=0;points=[[0,0.5],[1,0.5]];portConstraint=eastwest;" parent="c9hsdTaSiC_n7xofiwrB-20" vertex="1">
                    <mxGeometry y="26" width="330" height="26" as="geometry"/>
                </mxCell>
                <mxCell id="c9hsdTaSiC_n7xofiwrB-26" value="+ visitPackage(PackageTree node, P p)" style="text;strokeColor=none;fillColor=none;align=left;verticalAlign=top;spacingLeft=4;spacingRight=4;overflow=hidden;rotatable=0;points=[[0,0.5],[1,0.5]];portConstraint=eastwest;" parent="c9hsdTaSiC_n7xofiwrB-20" vertex="1">
                    <mxGeometry y="52" width="330" height="26" as="geometry"/>
                </mxCell>
                <mxCell id="c9hsdTaSiC_n7xofiwrB-27" value="+ visitImport(ImportTree node, P p)" style="text;strokeColor=none;fillColor=none;align=left;verticalAlign=top;spacingLeft=4;spacingRight=4;overflow=hidden;rotatable=0;points=[[0,0.5],[1,0.5]];portConstraint=eastwest;" parent="c9hsdTaSiC_n7xofiwrB-20" vertex="1">
                    <mxGeometry y="78" width="330" height="26" as="geometry"/>
                </mxCell>
                <mxCell id="c9hsdTaSiC_n7xofiwrB-28" value="+ visitClass(ClassTree node, P p)" style="text;strokeColor=none;fillColor=none;align=left;verticalAlign=top;spacingLeft=4;spacingRight=4;overflow=hidden;rotatable=0;points=[[0,0.5],[1,0.5]];portConstraint=eastwest;" parent="c9hsdTaSiC_n7xofiwrB-20" vertex="1">
                    <mxGeometry y="104" width="330" height="26" as="geometry"/>
                </mxCell>
                <mxCell id="c9hsdTaSiC_n7xofiwrB-29" value="+ visitMethod(MethodTree node, P p)" style="text;strokeColor=none;fillColor=none;align=left;verticalAlign=top;spacingLeft=4;spacingRight=4;overflow=hidden;rotatable=0;points=[[0,0.5],[1,0.5]];portConstraint=eastwest;" parent="c9hsdTaSiC_n7xofiwrB-20" vertex="1">
                    <mxGeometry y="130" width="330" height="26" as="geometry"/>
                </mxCell>
                <mxCell id="c9hsdTaSiC_n7xofiwrB-45" value="+ visitParenthesized(ParenthesizedTree node, P p)" style="text;strokeColor=none;fillColor=none;align=left;verticalAlign=top;spacingLeft=4;spacingRight=4;overflow=hidden;rotatable=0;points=[[0,0.5],[1,0.5]];portConstraint=eastwest;" parent="c9hsdTaSiC_n7xofiwrB-20" vertex="1">
                    <mxGeometry y="156" width="330" height="26" as="geometry"/>
                </mxCell>
                <mxCell id="c9hsdTaSiC_n7xofiwrB-30" value="+ visitVariable(VariableTree node, P p)" style="text;strokeColor=none;fillColor=none;align=left;verticalAlign=top;spacingLeft=4;spacingRight=4;overflow=hidden;rotatable=0;points=[[0,0.5],[1,0.5]];portConstraint=eastwest;" parent="c9hsdTaSiC_n7xofiwrB-20" vertex="1">
                    <mxGeometry y="182" width="330" height="26" as="geometry"/>
                </mxCell>
                <mxCell id="c9hsdTaSiC_n7xofiwrB-34" value="+ visitWhileLoop(WhileLoopTree node, P p)" style="text;strokeColor=none;fillColor=none;align=left;verticalAlign=top;spacingLeft=4;spacingRight=4;overflow=hidden;rotatable=0;points=[[0,0.5],[1,0.5]];portConstraint=eastwest;" parent="c9hsdTaSiC_n7xofiwrB-20" vertex="1">
                    <mxGeometry y="208" width="330" height="26" as="geometry"/>
                </mxCell>
                <mxCell id="c9hsdTaSiC_n7xofiwrB-35" value="+ visitForLoop(ForLoopTree node, P p)" style="text;strokeColor=none;fillColor=none;align=left;verticalAlign=top;spacingLeft=4;spacingRight=4;overflow=hidden;rotatable=0;points=[[0,0.5],[1,0.5]];portConstraint=eastwest;" parent="c9hsdTaSiC_n7xofiwrB-20" vertex="1">
                    <mxGeometry y="234" width="330" height="26" as="geometry"/>
                </mxCell>
                <mxCell id="c9hsdTaSiC_n7xofiwrB-36" value="+ visitMethodInvocation(MethodInvocationTree node, P p)" style="text;strokeColor=none;fillColor=none;align=left;verticalAlign=top;spacingLeft=4;spacingRight=4;overflow=hidden;rotatable=0;points=[[0,0.5],[1,0.5]];portConstraint=eastwest;" parent="c9hsdTaSiC_n7xofiwrB-20" vertex="1">
                    <mxGeometry y="260" width="330" height="26" as="geometry"/>
                </mxCell>
                <mxCell id="c9hsdTaSiC_n7xofiwrB-44" value="+ visitAnnotation(AnnotationType node, P p)" style="text;strokeColor=none;fillColor=none;align=left;verticalAlign=top;spacingLeft=4;spacingRight=4;overflow=hidden;rotatable=0;points=[[0,0.5],[1,0.5]];portConstraint=eastwest;" parent="c9hsdTaSiC_n7xofiwrB-20" vertex="1">
                    <mxGeometry y="286" width="330" height="26" as="geometry"/>
                </mxCell>
                <mxCell id="c9hsdTaSiC_n7xofiwrB-37" value="+ visitAnnotatedType(AnnotatedTypeTree node, P p)" style="text;strokeColor=none;fillColor=none;align=left;verticalAlign=top;spacingLeft=4;spacingRight=4;overflow=hidden;rotatable=0;points=[[0,0.5],[1,0.5]];portConstraint=eastwest;" parent="c9hsdTaSiC_n7xofiwrB-20" vertex="1">
                    <mxGeometry y="312" width="330" height="26" as="geometry"/>
                </mxCell>
                <mxCell id="c9hsdTaSiC_n7xofiwrB-43" value="+ visiteNewClass(NewClassTree node, P p)" style="text;strokeColor=none;fillColor=none;align=left;verticalAlign=top;spacingLeft=4;spacingRight=4;overflow=hidden;rotatable=0;points=[[0,0.5],[1,0.5]];portConstraint=eastwest;" parent="c9hsdTaSiC_n7xofiwrB-20" vertex="1">
                    <mxGeometry y="338" width="330" height="26" as="geometry"/>
                </mxCell>
                <mxCell id="c9hsdTaSiC_n7xofiwrB-42" value="+ scan(Tree tree, P p)" style="text;strokeColor=none;fillColor=none;align=left;verticalAlign=top;spacingLeft=4;spacingRight=4;overflow=hidden;rotatable=0;points=[[0,0.5],[1,0.5]];portConstraint=eastwest;" parent="c9hsdTaSiC_n7xofiwrB-20" vertex="1">
                    <mxGeometry y="364" width="330" height="26" as="geometry"/>
                </mxCell>
                <mxCell id="c9hsdTaSiC_n7xofiwrB-38" value="TreeVisitor" style="swimlane;fontStyle=0;childLayout=stackLayout;horizontal=1;startSize=26;fillColor=#ffe6cc;horizontalStack=0;resizeParent=1;resizeParentMax=0;resizeLast=0;collapsible=1;marginBottom=0;fontSize=16;strokeColor=#d79b00;" parent="yQ9km9YLX1whWhm04vPE-1" vertex="1">
                    <mxGeometry x="640" y="668" width="160" height="32" as="geometry"/>
                </mxCell>
                <mxCell id="rAwbK-CSQ3moBkevqctC-51" style="edgeStyle=none;rounded=0;orthogonalLoop=1;jettySize=auto;html=1;exitX=0.5;exitY=0;exitDx=0;exitDy=0;fontSize=16;startArrow=none;startFill=0;endArrow=block;endFill=0;endSize=12;entryX=0.531;entryY=0.996;entryDx=0;entryDy=0;entryPerimeter=0;" parent="yQ9km9YLX1whWhm04vPE-1" source="c9hsdTaSiC_n7xofiwrB-46" target="c9hsdTaSiC_n7xofiwrB-42" edge="1">
                    <mxGeometry relative="1" as="geometry">
                        <Array as="points">
                            <mxPoint x="825" y="1200"/>
                            <mxPoint x="730" y="1200"/>
                        </Array>
                    </mxGeometry>
                </mxCell>
                <mxCell id="c9hsdTaSiC_n7xofiwrB-46" value="VariableVisitor" style="swimlane;fontStyle=0;childLayout=stackLayout;horizontal=1;startSize=26;fillColor=#ffe6cc;horizontalStack=0;resizeParent=1;resizeParentMax=0;resizeLast=0;collapsible=1;marginBottom=0;fontSize=16;strokeColor=#d79b00;" parent="yQ9km9YLX1whWhm04vPE-1" vertex="1">
                    <mxGeometry x="730" y="1240" width="190" height="100" as="geometry"/>
                </mxCell>
                <mxCell id="c9hsdTaSiC_n7xofiwrB-49" value="+ scan(Tree root,&#10;List&lt;VariableTree&gt; trees)" style="text;strokeColor=none;fillColor=none;align=left;verticalAlign=top;spacingLeft=4;spacingRight=4;overflow=hidden;rotatable=0;points=[[0,0.5],[1,0.5]];portConstraint=eastwest;" parent="c9hsdTaSiC_n7xofiwrB-46" vertex="1">
                    <mxGeometry y="26" width="190" height="34" as="geometry"/>
                </mxCell>
                <mxCell id="rAwbK-CSQ3moBkevqctC-15" value="+ visitVariable(VariableTree root,&#10;List&lt;VariableTree&gt; trees)" style="text;strokeColor=none;fillColor=none;align=left;verticalAlign=top;spacingLeft=4;spacingRight=4;overflow=hidden;rotatable=0;points=[[0,0.5],[1,0.5]];portConstraint=eastwest;" parent="c9hsdTaSiC_n7xofiwrB-46" vertex="1">
                    <mxGeometry y="60" width="190" height="40" as="geometry"/>
                </mxCell>
                <mxCell id="c9hsdTaSiC_n7xofiwrB-50" value="AddServiceComponentService" style="swimlane;fontStyle=1;childLayout=stackLayout;horizontal=1;startSize=26;fillColor=#fff2cc;horizontalStack=0;resizeParent=1;resizeParentMax=0;resizeLast=0;collapsible=1;marginBottom=0;strokeColor=#d6b656;" parent="yQ9km9YLX1whWhm04vPE-1" vertex="1">
                    <mxGeometry x="470" y="170" width="210" height="112" as="geometry"/>
                </mxCell>
                <mxCell id="c9hsdTaSiC_n7xofiwrB-51" value="- newServiceClassCode: string" style="text;strokeColor=none;fillColor=none;align=left;verticalAlign=top;spacingLeft=4;spacingRight=4;overflow=hidden;rotatable=0;points=[[0,0.5],[1,0.5]];portConstraint=eastwest;" parent="c9hsdTaSiC_n7xofiwrB-50" vertex="1">
                    <mxGeometry y="26" width="210" height="26" as="geometry"/>
                </mxCell>
                <mxCell id="c9hsdTaSiC_n7xofiwrB-54" value="" style="line;strokeWidth=1;fillColor=none;align=left;verticalAlign=middle;spacingTop=-1;spacingLeft=3;spacingRight=3;rotatable=0;labelPosition=right;points=[];portConstraint=eastwest;fontSize=16;" parent="c9hsdTaSiC_n7xofiwrB-50" vertex="1">
                    <mxGeometry y="52" width="210" height="8" as="geometry"/>
                </mxCell>
                <mxCell id="rAwbK-CSQ3moBkevqctC-4" value="+ initialize(newClassCode)" style="text;strokeColor=none;fillColor=none;align=left;verticalAlign=top;spacingLeft=4;spacingRight=4;overflow=hidden;rotatable=0;points=[[0,0.5],[1,0.5]];portConstraint=eastwest;" parent="c9hsdTaSiC_n7xofiwrB-50" vertex="1">
                    <mxGeometry y="60" width="210" height="26" as="geometry"/>
                </mxCell>
                <mxCell id="c9hsdTaSiC_n7xofiwrB-53" value="+ addServiceComponent()" style="text;strokeColor=none;fillColor=none;align=left;verticalAlign=top;spacingLeft=4;spacingRight=4;overflow=hidden;rotatable=0;points=[[0,0.5],[1,0.5]];portConstraint=eastwest;" parent="c9hsdTaSiC_n7xofiwrB-50" vertex="1">
                    <mxGeometry y="86" width="210" height="26" as="geometry"/>
                </mxCell>
                <mxCell id="rAwbK-CSQ3moBkevqctC-2" value="" style="endArrow=open;endFill=1;endSize=12;html=1;exitX=0.474;exitY=0.98;exitDx=0;exitDy=0;exitPerimeter=0;entryX=0.5;entryY=0;entryDx=0;entryDy=0;dashed=1;" parent="yQ9km9YLX1whWhm04vPE-1" source="c9hsdTaSiC_n7xofiwrB-18" target="iRR1WqVuB1gnRzlNfeI0-2" edge="1">
                    <mxGeometry width="160" relative="1" as="geometry">
                        <mxPoint x="770" y="430" as="sourcePoint"/>
                        <mxPoint x="930" y="430" as="targetPoint"/>
                        <Array as="points">
                            <mxPoint x="855" y="440"/>
                            <mxPoint x="465" y="440"/>
                        </Array>
                    </mxGeometry>
                </mxCell>
                <mxCell id="rAwbK-CSQ3moBkevqctC-3" value="" style="endArrow=open;endFill=1;endSize=12;html=1;exitX=0.475;exitY=0.968;exitDx=0;exitDy=0;exitPerimeter=0;dashed=1;" parent="yQ9km9YLX1whWhm04vPE-1" source="c9hsdTaSiC_n7xofiwrB-18" target="c9hsdTaSiC_n7xofiwrB-0" edge="1">
                    <mxGeometry width="160" relative="1" as="geometry">
                        <mxPoint x="770" y="430" as="sourcePoint"/>
                        <mxPoint x="930" y="430" as="targetPoint"/>
                    </mxGeometry>
                </mxCell>
                <mxCell id="rAwbK-CSQ3moBkevqctC-6" value="" style="endArrow=open;endFill=1;endSize=12;html=1;dashed=1;exitX=0.482;exitY=1.038;exitDx=0;exitDy=0;exitPerimeter=0;entryX=0.25;entryY=0;entryDx=0;entryDy=0;" parent="yQ9km9YLX1whWhm04vPE-1" source="c9hsdTaSiC_n7xofiwrB-53" target="c9hsdTaSiC_n7xofiwrB-0" edge="1">
                    <mxGeometry width="160" relative="1" as="geometry">
                        <mxPoint x="680" y="420" as="sourcePoint"/>
                        <mxPoint x="840" y="420" as="targetPoint"/>
                        <Array as="points">
                            <mxPoint x="570" y="410"/>
                            <mxPoint x="793" y="410"/>
                        </Array>
                    </mxGeometry>
                </mxCell>
                <mxCell id="rAwbK-CSQ3moBkevqctC-9" style="rounded=0;orthogonalLoop=1;jettySize=auto;html=1;exitX=1;exitY=0.5;exitDx=0;exitDy=0;entryX=0.5;entryY=0;entryDx=0;entryDy=0;dashed=1;" parent="yQ9km9YLX1whWhm04vPE-1" source="iRR1WqVuB1gnRzlNfeI0-3" target="c9hsdTaSiC_n7xofiwrB-38" edge="1">
                    <mxGeometry relative="1" as="geometry"/>
                </mxCell>
                <mxCell id="rAwbK-CSQ3moBkevqctC-11" value="Use" style="text;align=center;fontStyle=1;verticalAlign=middle;spacingLeft=3;spacingRight=3;strokeColor=none;rotatable=0;points=[[0,0.5],[1,0.5]];portConstraint=eastwest;" parent="yQ9km9YLX1whWhm04vPE-1" vertex="1">
                    <mxGeometry x="640" y="539" width="80" height="26" as="geometry"/>
                </mxCell>
                <mxCell id="rAwbK-CSQ3moBkevqctC-12" value="Use" style="text;align=center;fontStyle=1;verticalAlign=middle;spacingLeft=3;spacingRight=3;strokeColor=none;rotatable=0;points=[[0,0.5],[1,0.5]];portConstraint=eastwest;" parent="yQ9km9YLX1whWhm04vPE-1" vertex="1">
                    <mxGeometry x="840" y="400" width="80" height="26" as="geometry"/>
                </mxCell>
                <mxCell id="rAwbK-CSQ3moBkevqctC-13" value="Use" style="text;align=center;fontStyle=1;verticalAlign=middle;spacingLeft=3;spacingRight=3;strokeColor=none;rotatable=0;points=[[0,0.5],[1,0.5]];portConstraint=eastwest;" parent="yQ9km9YLX1whWhm04vPE-1" vertex="1">
                    <mxGeometry x="510" y="310" width="80" height="26" as="geometry"/>
                </mxCell>
                <mxCell id="rAwbK-CSQ3moBkevqctC-53" value="" style="group" parent="yQ9km9YLX1whWhm04vPE-1" vertex="1" connectable="0">
                    <mxGeometry x="-670" y="690" width="970" height="378" as="geometry"/>
                </mxCell>
                <mxCell id="rAwbK-CSQ3moBkevqctC-16" value="Tree" style="swimlane;fontStyle=0;childLayout=stackLayout;horizontal=1;startSize=26;fillColor=#d5e8d4;horizontalStack=0;resizeParent=1;resizeParentMax=0;resizeLast=0;collapsible=1;marginBottom=0;fontSize=16;strokeColor=#82b366;" parent="rAwbK-CSQ3moBkevqctC-53" vertex="1">
                    <mxGeometry x="410" width="200" height="82" as="geometry"/>
                </mxCell>
                <mxCell id="rAwbK-CSQ3moBkevqctC-32" value="- kind: Enum&lt;Kind&gt;" style="text;strokeColor=none;fillColor=none;align=left;verticalAlign=top;spacingLeft=4;spacingRight=4;overflow=hidden;rotatable=0;points=[[0,0.5],[1,0.5]];portConstraint=eastwest;" parent="rAwbK-CSQ3moBkevqctC-16" vertex="1">
                    <mxGeometry y="26" width="200" height="24" as="geometry"/>
                </mxCell>
                <mxCell id="rAwbK-CSQ3moBkevqctC-42" value="" style="line;strokeWidth=1;fillColor=none;align=left;verticalAlign=middle;spacingTop=-1;spacingLeft=3;spacingRight=3;rotatable=0;labelPosition=right;points=[];portConstraint=eastwest;fontSize=16;" parent="rAwbK-CSQ3moBkevqctC-16" vertex="1">
                    <mxGeometry y="50" width="200" height="8" as="geometry"/>
                </mxCell>
                <mxCell id="rAwbK-CSQ3moBkevqctC-19" value="+ accept (TreeVisitor visitor, D data)" style="text;strokeColor=none;fillColor=none;align=left;verticalAlign=top;spacingLeft=4;spacingRight=4;overflow=hidden;rotatable=0;points=[[0,0.5],[1,0.5]];portConstraint=eastwest;" parent="rAwbK-CSQ3moBkevqctC-16" vertex="1">
                    <mxGeometry y="58" width="200" height="24" as="geometry"/>
                </mxCell>
                <mxCell id="rAwbK-CSQ3moBkevqctC-45" style="edgeStyle=none;rounded=0;orthogonalLoop=1;jettySize=auto;html=1;exitX=0.5;exitY=0;exitDx=0;exitDy=0;fontSize=16;startArrow=none;startFill=0;endArrow=block;endFill=0;endSize=12;entryX=0.501;entryY=0.961;entryDx=0;entryDy=0;entryPerimeter=0;" parent="rAwbK-CSQ3moBkevqctC-53" source="rAwbK-CSQ3moBkevqctC-20" target="rAwbK-CSQ3moBkevqctC-19" edge="1">
                    <mxGeometry relative="1" as="geometry">
                        <mxPoint x="510" y="80" as="targetPoint"/>
                        <Array as="points">
                            <mxPoint x="90" y="160"/>
                            <mxPoint x="510" y="160"/>
                        </Array>
                    </mxGeometry>
                </mxCell>
                <mxCell id="rAwbK-CSQ3moBkevqctC-20" value="CompilationUnitTree" style="swimlane;fontStyle=0;childLayout=stackLayout;horizontal=1;startSize=26;fillColor=#d5e8d4;horizontalStack=0;resizeParent=1;resizeParentMax=0;resizeLast=0;collapsible=1;marginBottom=0;fontSize=16;strokeColor=#82b366;" parent="rAwbK-CSQ3moBkevqctC-53" vertex="1">
                    <mxGeometry y="240" width="180" height="138" as="geometry"/>
                </mxCell>
                <mxCell id="rAwbK-CSQ3moBkevqctC-69" value="- packageTree: PackageTree" style="text;strokeColor=none;fillColor=none;align=left;verticalAlign=top;spacingLeft=4;spacingRight=4;overflow=hidden;rotatable=0;points=[[0,0.5],[1,0.5]];portConstraint=eastwest;" parent="rAwbK-CSQ3moBkevqctC-20" vertex="1">
                    <mxGeometry y="26" width="180" height="26" as="geometry"/>
                </mxCell>
                <mxCell id="rAwbK-CSQ3moBkevqctC-71" value="- importTrees: List&lt;ImportTree&gt;" style="text;strokeColor=none;fillColor=none;align=left;verticalAlign=top;spacingLeft=4;spacingRight=4;overflow=hidden;rotatable=0;points=[[0,0.5],[1,0.5]];portConstraint=eastwest;" parent="rAwbK-CSQ3moBkevqctC-20" vertex="1">
                    <mxGeometry y="52" width="180" height="26" as="geometry"/>
                </mxCell>
                <mxCell id="rAwbK-CSQ3moBkevqctC-72" value="- classTrees: List&lt;ClassTree&gt;" style="text;strokeColor=none;fillColor=none;align=left;verticalAlign=top;spacingLeft=4;spacingRight=4;overflow=hidden;rotatable=0;points=[[0,0.5],[1,0.5]];portConstraint=eastwest;" parent="rAwbK-CSQ3moBkevqctC-20" vertex="1">
                    <mxGeometry y="78" width="180" height="26" as="geometry"/>
                </mxCell>
                <mxCell id="rAwbK-CSQ3moBkevqctC-70" value="" style="line;strokeWidth=1;fillColor=none;align=left;verticalAlign=middle;spacingTop=-1;spacingLeft=3;spacingRight=3;rotatable=0;labelPosition=right;points=[];portConstraint=eastwest;fontSize=16;" parent="rAwbK-CSQ3moBkevqctC-20" vertex="1">
                    <mxGeometry y="104" width="180" height="8" as="geometry"/>
                </mxCell>
                <mxCell id="rAwbK-CSQ3moBkevqctC-21" value="+ getPackageName(): string" style="text;strokeColor=none;fillColor=none;align=left;verticalAlign=top;spacingLeft=4;spacingRight=4;overflow=hidden;rotatable=0;points=[[0,0.5],[1,0.5]];portConstraint=eastwest;" parent="rAwbK-CSQ3moBkevqctC-20" vertex="1">
                    <mxGeometry y="112" width="180" height="26" as="geometry"/>
                </mxCell>
                <mxCell id="rAwbK-CSQ3moBkevqctC-44" style="edgeStyle=none;rounded=0;orthogonalLoop=1;jettySize=auto;html=1;exitX=0.5;exitY=0;exitDx=0;exitDy=0;fontSize=16;startArrow=none;startFill=0;endArrow=block;endFill=0;endSize=12;entryX=0.501;entryY=0.988;entryDx=0;entryDy=0;entryPerimeter=0;" parent="rAwbK-CSQ3moBkevqctC-53" source="rAwbK-CSQ3moBkevqctC-22" target="rAwbK-CSQ3moBkevqctC-19" edge="1">
                    <mxGeometry relative="1" as="geometry">
                        <mxPoint x="510" y="82" as="targetPoint"/>
                        <Array as="points">
                            <mxPoint x="260" y="160"/>
                            <mxPoint x="510" y="160"/>
                        </Array>
                    </mxGeometry>
                </mxCell>
                <mxCell id="rAwbK-CSQ3moBkevqctC-22" value="ImportTree" style="swimlane;fontStyle=0;childLayout=stackLayout;horizontal=1;startSize=26;fillColor=#d5e8d4;horizontalStack=0;resizeParent=1;resizeParentMax=0;resizeLast=0;collapsible=1;marginBottom=0;fontSize=16;strokeColor=#82b366;" parent="rAwbK-CSQ3moBkevqctC-53" vertex="1">
                    <mxGeometry x="190" y="240" width="140" height="40" as="geometry"/>
                </mxCell>
                <mxCell id="rAwbK-CSQ3moBkevqctC-47" style="edgeStyle=none;rounded=0;orthogonalLoop=1;jettySize=auto;html=1;exitX=0.5;exitY=0;exitDx=0;exitDy=0;fontSize=16;startArrow=none;startFill=0;endArrow=block;endFill=0;endSize=12;entryX=0.506;entryY=0.97;entryDx=0;entryDy=0;entryPerimeter=0;" parent="rAwbK-CSQ3moBkevqctC-53" source="rAwbK-CSQ3moBkevqctC-24" target="rAwbK-CSQ3moBkevqctC-19" edge="1">
                    <mxGeometry relative="1" as="geometry">
                        <Array as="points">
                            <mxPoint x="470" y="160"/>
                            <mxPoint x="511" y="160"/>
                        </Array>
                    </mxGeometry>
                </mxCell>
                <mxCell id="rAwbK-CSQ3moBkevqctC-24" value="ClassTree" style="swimlane;fontStyle=0;childLayout=stackLayout;horizontal=1;startSize=26;fillColor=#d5e8d4;horizontalStack=0;resizeParent=1;resizeParentMax=0;resizeLast=0;collapsible=1;marginBottom=0;fontSize=16;strokeColor=#82b366;" parent="rAwbK-CSQ3moBkevqctC-53" vertex="1">
                    <mxGeometry x="370" y="240" width="200" height="138" as="geometry"/>
                </mxCell>
                <mxCell id="rAwbK-CSQ3moBkevqctC-25" value="- methodTrees: List&lt;MethodTree&gt;" style="text;strokeColor=none;fillColor=none;align=left;verticalAlign=top;spacingLeft=4;spacingRight=4;overflow=hidden;rotatable=0;points=[[0,0.5],[1,0.5]];portConstraint=eastwest;" parent="rAwbK-CSQ3moBkevqctC-24" vertex="1">
                    <mxGeometry y="26" width="200" height="26" as="geometry"/>
                </mxCell>
                <mxCell id="rAwbK-CSQ3moBkevqctC-78" value="- variableTrees: List&lt;VariableTree&gt;" style="text;strokeColor=none;fillColor=none;align=left;verticalAlign=top;spacingLeft=4;spacingRight=4;overflow=hidden;rotatable=0;points=[[0,0.5],[1,0.5]];portConstraint=eastwest;" parent="rAwbK-CSQ3moBkevqctC-24" vertex="1">
                    <mxGeometry y="52" width="200" height="26" as="geometry"/>
                </mxCell>
                <mxCell id="rAwbK-CSQ3moBkevqctC-76" value="" style="line;strokeWidth=1;fillColor=none;align=left;verticalAlign=middle;spacingTop=-1;spacingLeft=3;spacingRight=3;rotatable=0;labelPosition=right;points=[];portConstraint=eastwest;fontSize=16;" parent="rAwbK-CSQ3moBkevqctC-24" vertex="1">
                    <mxGeometry y="78" width="200" height="8" as="geometry"/>
                </mxCell>
                <mxCell id="rAwbK-CSQ3moBkevqctC-41" value="+ getMember(): List&lt;Tree&gt;" style="text;strokeColor=none;fillColor=none;align=left;verticalAlign=top;spacingLeft=4;spacingRight=4;overflow=hidden;rotatable=0;points=[[0,0.5],[1,0.5]];portConstraint=eastwest;" parent="rAwbK-CSQ3moBkevqctC-24" vertex="1">
                    <mxGeometry y="86" width="200" height="26" as="geometry"/>
                </mxCell>
                <mxCell id="rAwbK-CSQ3moBkevqctC-77" value="+ getName(): string" style="text;strokeColor=none;fillColor=none;align=left;verticalAlign=top;spacingLeft=4;spacingRight=4;overflow=hidden;rotatable=0;points=[[0,0.5],[1,0.5]];portConstraint=eastwest;" parent="rAwbK-CSQ3moBkevqctC-24" vertex="1">
                    <mxGeometry y="112" width="200" height="26" as="geometry"/>
                </mxCell>
                <mxCell id="rAwbK-CSQ3moBkevqctC-48" style="edgeStyle=none;rounded=0;orthogonalLoop=1;jettySize=auto;html=1;exitX=0.5;exitY=0;exitDx=0;exitDy=0;entryX=0.506;entryY=1.008;entryDx=0;entryDy=0;entryPerimeter=0;fontSize=16;startArrow=none;startFill=0;endArrow=block;endFill=0;endSize=12;" parent="rAwbK-CSQ3moBkevqctC-53" source="rAwbK-CSQ3moBkevqctC-26" target="rAwbK-CSQ3moBkevqctC-19" edge="1">
                    <mxGeometry relative="1" as="geometry">
                        <Array as="points">
                            <mxPoint x="840" y="160"/>
                            <mxPoint x="511" y="160"/>
                        </Array>
                    </mxGeometry>
                </mxCell>
                <mxCell id="rAwbK-CSQ3moBkevqctC-26" value="MethodTree" style="swimlane;fontStyle=0;childLayout=stackLayout;horizontal=1;startSize=26;fillColor=#d5e8d4;horizontalStack=0;resizeParent=1;resizeParentMax=0;resizeLast=0;collapsible=1;marginBottom=0;fontSize=16;strokeColor=#82b366;" parent="rAwbK-CSQ3moBkevqctC-53" vertex="1">
                    <mxGeometry x="730" y="240" width="220" height="112" as="geometry"/>
                </mxCell>
                <mxCell id="rAwbK-CSQ3moBkevqctC-40" value="- parameterTrees: List&lt;VariableTree&gt;" style="text;strokeColor=none;fillColor=none;align=left;verticalAlign=top;spacingLeft=4;spacingRight=4;overflow=hidden;rotatable=0;points=[[0,0.5],[1,0.5]];portConstraint=eastwest;" parent="rAwbK-CSQ3moBkevqctC-26" vertex="1">
                    <mxGeometry y="26" width="220" height="26" as="geometry"/>
                </mxCell>
                <mxCell id="rAwbK-CSQ3moBkevqctC-82" value="" style="line;strokeWidth=1;fillColor=none;align=left;verticalAlign=middle;spacingTop=-1;spacingLeft=3;spacingRight=3;rotatable=0;labelPosition=right;points=[];portConstraint=eastwest;fontSize=16;" parent="rAwbK-CSQ3moBkevqctC-26" vertex="1">
                    <mxGeometry y="52" width="220" height="8" as="geometry"/>
                </mxCell>
                <mxCell id="rAwbK-CSQ3moBkevqctC-27" value="+ getParameters(): List&lt;VariableTree&gt;" style="text;strokeColor=none;fillColor=none;align=left;verticalAlign=top;spacingLeft=4;spacingRight=4;overflow=hidden;rotatable=0;points=[[0,0.5],[1,0.5]];portConstraint=eastwest;" parent="rAwbK-CSQ3moBkevqctC-26" vertex="1">
                    <mxGeometry y="60" width="220" height="26" as="geometry"/>
                </mxCell>
                <mxCell id="rAwbK-CSQ3moBkevqctC-83" value="+ getName(): string" style="text;strokeColor=none;fillColor=none;align=left;verticalAlign=top;spacingLeft=4;spacingRight=4;overflow=hidden;rotatable=0;points=[[0,0.5],[1,0.5]];portConstraint=eastwest;" parent="rAwbK-CSQ3moBkevqctC-26" vertex="1">
                    <mxGeometry y="86" width="220" height="26" as="geometry"/>
                </mxCell>
                <mxCell id="rAwbK-CSQ3moBkevqctC-46" style="edgeStyle=none;rounded=0;orthogonalLoop=1;jettySize=auto;html=1;exitX=0.5;exitY=0;exitDx=0;exitDy=0;entryX=0.496;entryY=0.961;entryDx=0;entryDy=0;entryPerimeter=0;fontSize=16;startArrow=none;startFill=0;endArrow=block;endFill=0;endSize=12;" parent="rAwbK-CSQ3moBkevqctC-53" source="rAwbK-CSQ3moBkevqctC-28" target="rAwbK-CSQ3moBkevqctC-19" edge="1">
                    <mxGeometry relative="1" as="geometry">
                        <Array as="points">
                            <mxPoint x="650" y="160"/>
                            <mxPoint x="509" y="160"/>
                        </Array>
                    </mxGeometry>
                </mxCell>
                <mxCell id="rAwbK-CSQ3moBkevqctC-28" value="VariableTree" style="swimlane;fontStyle=0;childLayout=stackLayout;horizontal=1;startSize=26;fillColor=#d5e8d4;horizontalStack=0;resizeParent=1;resizeParentMax=0;resizeLast=0;collapsible=1;marginBottom=0;fontSize=16;strokeColor=#82b366;" parent="rAwbK-CSQ3moBkevqctC-53" vertex="1">
                    <mxGeometry x="580" y="240" width="140" height="52" as="geometry"/>
                </mxCell>
                <mxCell id="rAwbK-CSQ3moBkevqctC-29" value="+ getName(): string" style="text;strokeColor=none;fillColor=none;align=left;verticalAlign=top;spacingLeft=4;spacingRight=4;overflow=hidden;rotatable=0;points=[[0,0.5],[1,0.5]];portConstraint=eastwest;" parent="rAwbK-CSQ3moBkevqctC-28" vertex="1">
                    <mxGeometry y="26" width="140" height="26" as="geometry"/>
                </mxCell>
                <mxCell id="rAwbK-CSQ3moBkevqctC-33" value="Enum&lt;Kind&gt;" style="swimlane;fontStyle=0;childLayout=stackLayout;horizontal=1;startSize=26;fillColor=none;horizontalStack=0;resizeParent=1;resizeParentMax=0;resizeLast=0;collapsible=1;marginBottom=0;fontSize=16;" parent="rAwbK-CSQ3moBkevqctC-53" vertex="1">
                    <mxGeometry x="830" width="140" height="156" as="geometry"/>
                </mxCell>
                <mxCell id="rAwbK-CSQ3moBkevqctC-34" value="IMPORT" style="text;strokeColor=none;fillColor=none;align=left;verticalAlign=top;spacingLeft=4;spacingRight=4;overflow=hidden;rotatable=0;points=[[0,0.5],[1,0.5]];portConstraint=eastwest;" parent="rAwbK-CSQ3moBkevqctC-33" vertex="1">
                    <mxGeometry y="26" width="140" height="26" as="geometry"/>
                </mxCell>
                <mxCell id="rAwbK-CSQ3moBkevqctC-35" value="CLASS" style="text;strokeColor=none;fillColor=none;align=left;verticalAlign=top;spacingLeft=4;spacingRight=4;overflow=hidden;rotatable=0;points=[[0,0.5],[1,0.5]];portConstraint=eastwest;" parent="rAwbK-CSQ3moBkevqctC-33" vertex="1">
                    <mxGeometry y="52" width="140" height="26" as="geometry"/>
                </mxCell>
                <mxCell id="rAwbK-CSQ3moBkevqctC-36" value="METHOD" style="text;strokeColor=none;fillColor=none;align=left;verticalAlign=top;spacingLeft=4;spacingRight=4;overflow=hidden;rotatable=0;points=[[0,0.5],[1,0.5]];portConstraint=eastwest;" parent="rAwbK-CSQ3moBkevqctC-33" vertex="1">
                    <mxGeometry y="78" width="140" height="26" as="geometry"/>
                </mxCell>
                <mxCell id="rAwbK-CSQ3moBkevqctC-37" value="PARAMETER" style="text;strokeColor=none;fillColor=none;align=left;verticalAlign=top;spacingLeft=4;spacingRight=4;overflow=hidden;rotatable=0;points=[[0,0.5],[1,0.5]];portConstraint=eastwest;" parent="rAwbK-CSQ3moBkevqctC-33" vertex="1">
                    <mxGeometry y="104" width="140" height="26" as="geometry"/>
                </mxCell>
                <mxCell id="rAwbK-CSQ3moBkevqctC-38" value="VARIABLE" style="text;strokeColor=none;fillColor=none;align=left;verticalAlign=top;spacingLeft=4;spacingRight=4;overflow=hidden;rotatable=0;points=[[0,0.5],[1,0.5]];portConstraint=eastwest;" parent="rAwbK-CSQ3moBkevqctC-33" vertex="1">
                    <mxGeometry y="130" width="140" height="26" as="geometry"/>
                </mxCell>
                <mxCell id="rAwbK-CSQ3moBkevqctC-39" style="edgeStyle=none;rounded=0;orthogonalLoop=1;jettySize=auto;html=1;exitX=1;exitY=0.5;exitDx=0;exitDy=0;fontSize=16;endArrow=none;endFill=0;endSize=12;startArrow=circlePlus;startFill=0;" parent="rAwbK-CSQ3moBkevqctC-53" source="rAwbK-CSQ3moBkevqctC-32" target="rAwbK-CSQ3moBkevqctC-34" edge="1">
                    <mxGeometry relative="1" as="geometry"/>
                </mxCell>
                <mxCell id="rAwbK-CSQ3moBkevqctC-74" style="edgeStyle=orthogonalEdgeStyle;rounded=0;orthogonalLoop=1;jettySize=auto;html=1;exitX=0;exitY=0.5;exitDx=0;exitDy=0;entryX=0.25;entryY=0;entryDx=0;entryDy=0;fontSize=16;startArrow=diamondThin;startFill=1;endArrow=none;endFill=0;endSize=6;startSize=12;" parent="rAwbK-CSQ3moBkevqctC-53" source="rAwbK-CSQ3moBkevqctC-71" target="rAwbK-CSQ3moBkevqctC-22" edge="1">
                    <mxGeometry relative="1" as="geometry">
                        <Array as="points">
                            <mxPoint x="-40" y="305"/>
                            <mxPoint x="-40" y="210"/>
                            <mxPoint x="225" y="210"/>
                        </Array>
                    </mxGeometry>
                </mxCell>
                <mxCell id="rAwbK-CSQ3moBkevqctC-75" style="edgeStyle=orthogonalEdgeStyle;rounded=0;orthogonalLoop=1;jettySize=auto;html=1;exitX=0;exitY=0.5;exitDx=0;exitDy=0;entryX=0.25;entryY=0;entryDx=0;entryDy=0;fontSize=16;startArrow=diamondThin;startFill=1;endArrow=none;endFill=0;startSize=12;endSize=6;" parent="rAwbK-CSQ3moBkevqctC-53" source="rAwbK-CSQ3moBkevqctC-72" target="rAwbK-CSQ3moBkevqctC-24" edge="1">
                    <mxGeometry relative="1" as="geometry">
                        <Array as="points">
                            <mxPoint x="-40" y="331"/>
                            <mxPoint x="-40" y="210"/>
                            <mxPoint x="420" y="210"/>
                        </Array>
                    </mxGeometry>
                </mxCell>
                <mxCell id="rAwbK-CSQ3moBkevqctC-80" style="edgeStyle=orthogonalEdgeStyle;rounded=0;orthogonalLoop=1;jettySize=auto;html=1;exitX=0;exitY=0.5;exitDx=0;exitDy=0;entryX=0.25;entryY=0;entryDx=0;entryDy=0;fontSize=16;startArrow=diamondThin;startFill=1;endArrow=none;endFill=0;startSize=12;endSize=6;" parent="rAwbK-CSQ3moBkevqctC-53" source="rAwbK-CSQ3moBkevqctC-78" target="rAwbK-CSQ3moBkevqctC-28" edge="1">
                    <mxGeometry relative="1" as="geometry"/>
                </mxCell>
                <mxCell id="rAwbK-CSQ3moBkevqctC-81" style="edgeStyle=orthogonalEdgeStyle;rounded=0;orthogonalLoop=1;jettySize=auto;html=1;exitX=0;exitY=0.5;exitDx=0;exitDy=0;entryX=0.25;entryY=0;entryDx=0;entryDy=0;fontSize=16;startArrow=diamondThin;startFill=1;endArrow=none;endFill=0;startSize=12;endSize=6;" parent="rAwbK-CSQ3moBkevqctC-53" source="rAwbK-CSQ3moBkevqctC-25" target="rAwbK-CSQ3moBkevqctC-26" edge="1">
                    <mxGeometry relative="1" as="geometry">
                        <Array as="points">
                            <mxPoint x="340" y="279"/>
                            <mxPoint x="340" y="220"/>
                            <mxPoint x="785" y="220"/>
                        </Array>
                    </mxGeometry>
                </mxCell>
                <mxCell id="rAwbK-CSQ3moBkevqctC-84" style="edgeStyle=orthogonalEdgeStyle;rounded=0;orthogonalLoop=1;jettySize=auto;html=1;exitX=1;exitY=0.5;exitDx=0;exitDy=0;entryX=0.75;entryY=0;entryDx=0;entryDy=0;fontSize=16;startArrow=diamondThin;startFill=1;endArrow=none;endFill=0;startSize=12;endSize=6;" parent="rAwbK-CSQ3moBkevqctC-53" source="rAwbK-CSQ3moBkevqctC-40" target="rAwbK-CSQ3moBkevqctC-28" edge="1">
                    <mxGeometry relative="1" as="geometry">
                        <Array as="points">
                            <mxPoint x="980" y="279"/>
                            <mxPoint x="980" y="210"/>
                            <mxPoint x="685" y="210"/>
                        </Array>
                    </mxGeometry>
                </mxCell>
                <mxCell id="rAwbK-CSQ3moBkevqctC-55" style="edgeStyle=none;rounded=0;orthogonalLoop=1;jettySize=auto;html=1;exitX=0;exitY=0.5;exitDx=0;exitDy=0;entryX=0.55;entryY=-0.015;entryDx=0;entryDy=0;entryPerimeter=0;fontSize=16;startArrow=none;startFill=0;endArrow=classic;endFill=1;endSize=12;dashed=1;" parent="yQ9km9YLX1whWhm04vPE-1" source="iRR1WqVuB1gnRzlNfeI0-3" target="rAwbK-CSQ3moBkevqctC-16" edge="1">
                    <mxGeometry relative="1" as="geometry">
                        <Array as="points">
                            <mxPoint x="-150" y="509"/>
                        </Array>
                    </mxGeometry>
                </mxCell>
                <mxCell id="rAwbK-CSQ3moBkevqctC-56" value="Create" style="text;align=center;fontStyle=1;verticalAlign=middle;spacingLeft=3;spacingRight=3;strokeColor=none;rotatable=0;points=[[0,0.5],[1,0.5]];portConstraint=eastwest;fontSize=16;" parent="yQ9km9YLX1whWhm04vPE-1" vertex="1">
                    <mxGeometry x="-150" y="524" width="80" height="26" as="geometry"/>
                </mxCell>
                <mxCell id="rAwbK-CSQ3moBkevqctC-57" value="ServiceComponentController" style="swimlane;fontStyle=1;childLayout=stackLayout;horizontal=1;startSize=26;fillColor=none;horizontalStack=0;resizeParent=1;resizeParentMax=0;resizeLast=0;collapsible=1;marginBottom=0;fontSize=16;" parent="yQ9km9YLX1whWhm04vPE-1" vertex="1">
                    <mxGeometry x="60" y="40" width="270" height="126" as="geometry"/>
                </mxCell>
                <mxCell id="PiwdkrNxFQdpEThUTqZ6-27" value="- addServiceComponentService: &#10;AddServiceComponentService" style="text;strokeColor=none;fillColor=none;align=left;verticalAlign=top;spacingLeft=4;spacingRight=4;overflow=hidden;rotatable=0;points=[[0,0.5],[1,0.5]];portConstraint=eastwest;" parent="rAwbK-CSQ3moBkevqctC-57" vertex="1">
                    <mxGeometry y="26" width="270" height="34" as="geometry"/>
                </mxCell>
                <mxCell id="PiwdkrNxFQdpEThUTqZ6-28" value="- editServiceComponentService:&#10;EditServiceComponentService" style="text;strokeColor=none;fillColor=none;align=left;verticalAlign=top;spacingLeft=4;spacingRight=4;overflow=hidden;rotatable=0;points=[[0,0.5],[1,0.5]];portConstraint=eastwest;" parent="rAwbK-CSQ3moBkevqctC-57" vertex="1">
                    <mxGeometry y="60" width="270" height="40" as="geometry"/>
                </mxCell>
                <mxCell id="PiwdkrNxFQdpEThUTqZ6-29" value="- jenkinsUtilService: JenkinsUtilService" style="text;strokeColor=none;fillColor=none;align=left;verticalAlign=top;spacingLeft=4;spacingRight=4;overflow=hidden;rotatable=0;points=[[0,0.5],[1,0.5]];portConstraint=eastwest;" parent="rAwbK-CSQ3moBkevqctC-57" vertex="1">
                    <mxGeometry y="100" width="270" height="26" as="geometry"/>
                </mxCell>
                <mxCell id="rAwbK-CSQ3moBkevqctC-66" value="" style="group" parent="yQ9km9YLX1whWhm04vPE-1" vertex="1" connectable="0">
                    <mxGeometry x="-300" y="75" width="220" height="110" as="geometry"/>
                </mxCell>
                <mxCell id="rAwbK-CSQ3moBkevqctC-64" value="" style="rounded=0;whiteSpace=wrap;html=1;fontSize=16;fillColor=#dae8fc;strokeColor=#6c8ebf;" parent="rAwbK-CSQ3moBkevqctC-66" vertex="1">
                    <mxGeometry width="220" height="110" as="geometry"/>
                </mxCell>
                <mxCell id="rAwbK-CSQ3moBkevqctC-65" value="&lt;b&gt;UI-Design-Client&lt;/b&gt;" style="rounded=1;whiteSpace=wrap;html=1;fontSize=16;" parent="rAwbK-CSQ3moBkevqctC-66" vertex="1">
                    <mxGeometry x="27.5" y="25" width="165" height="60" as="geometry"/>
                </mxCell>
                <mxCell id="rAwbK-CSQ3moBkevqctC-67" style="edgeStyle=none;rounded=0;orthogonalLoop=1;jettySize=auto;html=1;exitX=1;exitY=0.5;exitDx=0;exitDy=0;entryX=0;entryY=0.5;entryDx=0;entryDy=0;fontSize=16;startArrow=none;startFill=0;endArrow=classic;endFill=1;endSize=12;" parent="yQ9km9YLX1whWhm04vPE-1" source="rAwbK-CSQ3moBkevqctC-65" target="rAwbK-CSQ3moBkevqctC-57" edge="1">
                    <mxGeometry relative="1" as="geometry"/>
                </mxCell>
                <mxCell id="PiwdkrNxFQdpEThUTqZ6-0" value="JenkinsUtilService" style="swimlane;fontStyle=0;childLayout=stackLayout;horizontal=1;startSize=26;fillColor=#e1d5e7;horizontalStack=0;resizeParent=1;resizeParentMax=0;resizeLast=0;collapsible=1;marginBottom=0;fontSize=16;strokeColor=#9673a6;" parent="yQ9km9YLX1whWhm04vPE-1" vertex="1">
                    <mxGeometry x="70" y="258" width="180" height="164" as="geometry"/>
                </mxCell>
                <mxCell id="PiwdkrNxFQdpEThUTqZ6-1" value="- jenkinsClient: JenkinsClient" style="text;strokeColor=none;fillColor=none;align=left;verticalAlign=top;spacingLeft=4;spacingRight=4;overflow=hidden;rotatable=0;points=[[0,0.5],[1,0.5]];portConstraint=eastwest;" parent="PiwdkrNxFQdpEThUTqZ6-0" vertex="1">
                    <mxGeometry y="26" width="180" height="26" as="geometry"/>
                </mxCell>
                <mxCell id="PiwdkrNxFQdpEThUTqZ6-2" value="- config: Config" style="text;strokeColor=none;fillColor=none;align=left;verticalAlign=top;spacingLeft=4;spacingRight=4;overflow=hidden;rotatable=0;points=[[0,0.5],[1,0.5]];portConstraint=eastwest;" parent="PiwdkrNxFQdpEThUTqZ6-0" vertex="1">
                    <mxGeometry y="52" width="180" height="26" as="geometry"/>
                </mxCell>
                <mxCell id="PiwdkrNxFQdpEThUTqZ6-14" value="" style="line;strokeWidth=1;fillColor=none;align=left;verticalAlign=middle;spacingTop=-1;spacingLeft=3;spacingRight=3;rotatable=0;labelPosition=right;points=[];portConstraint=eastwest;fontSize=16;" parent="PiwdkrNxFQdpEThUTqZ6-0" vertex="1">
                    <mxGeometry y="78" width="180" height="8" as="geometry"/>
                </mxCell>
                <mxCell id="PiwdkrNxFQdpEThUTqZ6-13" value="+ triggerEditServicePipeline()" style="text;strokeColor=none;fillColor=none;align=left;verticalAlign=top;spacingLeft=4;spacingRight=4;overflow=hidden;rotatable=0;points=[[0,0.5],[1,0.5]];portConstraint=eastwest;" parent="PiwdkrNxFQdpEThUTqZ6-0" vertex="1">
                    <mxGeometry y="86" width="180" height="26" as="geometry"/>
                </mxCell>
                <mxCell id="PiwdkrNxFQdpEThUTqZ6-15" value="+ triggerAddServicePipeline()" style="text;strokeColor=none;fillColor=none;align=left;verticalAlign=top;spacingLeft=4;spacingRight=4;overflow=hidden;rotatable=0;points=[[0,0.5],[1,0.5]];portConstraint=eastwest;" parent="PiwdkrNxFQdpEThUTqZ6-0" vertex="1">
                    <mxGeometry y="112" width="180" height="26" as="geometry"/>
                </mxCell>
                <mxCell id="PiwdkrNxFQdpEThUTqZ6-26" value="+ getCurrentStage()" style="text;strokeColor=none;fillColor=none;align=left;verticalAlign=top;spacingLeft=4;spacingRight=4;overflow=hidden;rotatable=0;points=[[0,0.5],[1,0.5]];portConstraint=eastwest;" parent="PiwdkrNxFQdpEThUTqZ6-0" vertex="1">
                    <mxGeometry y="138" width="180" height="26" as="geometry"/>
                </mxCell>
                <mxCell id="PiwdkrNxFQdpEThUTqZ6-6" value="Config" style="swimlane;fontStyle=0;childLayout=stackLayout;horizontal=1;startSize=26;fillColor=#e1d5e7;horizontalStack=0;resizeParent=1;resizeParentMax=0;resizeLast=0;collapsible=1;marginBottom=0;fontSize=16;strokeColor=#9673a6;" parent="yQ9km9YLX1whWhm04vPE-1" vertex="1">
                    <mxGeometry x="-100" y="350" width="140" height="130" as="geometry"/>
                </mxCell>
                <mxCell id="PiwdkrNxFQdpEThUTqZ6-7" value="- jenkinsUrl: String" style="text;strokeColor=none;fillColor=none;align=left;verticalAlign=top;spacingLeft=4;spacingRight=4;overflow=hidden;rotatable=0;points=[[0,0.5],[1,0.5]];portConstraint=eastwest;" parent="PiwdkrNxFQdpEThUTqZ6-6" vertex="1">
                    <mxGeometry y="26" width="140" height="26" as="geometry"/>
                </mxCell>
                <mxCell id="PiwdkrNxFQdpEThUTqZ6-8" value="- jobName: String" style="text;strokeColor=none;fillColor=none;align=left;verticalAlign=top;spacingLeft=4;spacingRight=4;overflow=hidden;rotatable=0;points=[[0,0.5],[1,0.5]];portConstraint=eastwest;" parent="PiwdkrNxFQdpEThUTqZ6-6" vertex="1">
                    <mxGeometry y="52" width="140" height="26" as="geometry"/>
                </mxCell>
                <mxCell id="PiwdkrNxFQdpEThUTqZ6-9" value="- projectName: String" style="text;strokeColor=none;fillColor=none;align=left;verticalAlign=top;spacingLeft=4;spacingRight=4;overflow=hidden;rotatable=0;points=[[0,0.5],[1,0.5]];portConstraint=eastwest;" parent="PiwdkrNxFQdpEThUTqZ6-6" vertex="1">
                    <mxGeometry y="78" width="140" height="26" as="geometry"/>
                </mxCell>
                <mxCell id="PiwdkrNxFQdpEThUTqZ6-12" value="- buildTimeOut: Int" style="text;strokeColor=none;fillColor=none;align=left;verticalAlign=top;spacingLeft=4;spacingRight=4;overflow=hidden;rotatable=0;points=[[0,0.5],[1,0.5]];portConstraint=eastwest;" parent="PiwdkrNxFQdpEThUTqZ6-6" vertex="1">
                    <mxGeometry y="104" width="140" height="26" as="geometry"/>
                </mxCell>
                <mxCell id="PiwdkrNxFQdpEThUTqZ6-10" style="edgeStyle=orthogonalEdgeStyle;rounded=0;orthogonalLoop=1;jettySize=auto;html=1;exitX=0;exitY=0.5;exitDx=0;exitDy=0;entryX=0.5;entryY=0;entryDx=0;entryDy=0;fontSize=16;startArrow=circlePlus;startFill=0;endArrow=none;endFill=0;startSize=6;endSize=6;" parent="yQ9km9YLX1whWhm04vPE-1" source="PiwdkrNxFQdpEThUTqZ6-2" target="PiwdkrNxFQdpEThUTqZ6-6" edge="1">
                    <mxGeometry relative="1" as="geometry"/>
                </mxCell>
                <mxCell id="PiwdkrNxFQdpEThUTqZ6-16" value="Enum&lt;BuildStatus&gt;" style="swimlane;fontStyle=0;childLayout=stackLayout;horizontal=1;startSize=26;fillColor=none;horizontalStack=0;resizeParent=1;resizeParentMax=0;resizeLast=0;collapsible=1;marginBottom=0;fontSize=16;" parent="yQ9km9YLX1whWhm04vPE-1" vertex="1">
                    <mxGeometry x="-300" y="350" width="180" height="130" as="geometry"/>
                </mxCell>
                <mxCell id="PiwdkrNxFQdpEThUTqZ6-18" value="SUCCESS" style="text;strokeColor=none;fillColor=none;align=left;verticalAlign=top;spacingLeft=4;spacingRight=4;overflow=hidden;rotatable=0;points=[[0,0.5],[1,0.5]];portConstraint=eastwest;" parent="PiwdkrNxFQdpEThUTqZ6-16" vertex="1">
                    <mxGeometry y="26" width="180" height="26" as="geometry"/>
                </mxCell>
                <mxCell id="PiwdkrNxFQdpEThUTqZ6-19" value="NOT_EXECUTED" style="text;strokeColor=none;fillColor=none;align=left;verticalAlign=top;spacingLeft=4;spacingRight=4;overflow=hidden;rotatable=0;points=[[0,0.5],[1,0.5]];portConstraint=eastwest;" parent="PiwdkrNxFQdpEThUTqZ6-16" vertex="1">
                    <mxGeometry y="52" width="180" height="26" as="geometry"/>
                </mxCell>
                <mxCell id="PiwdkrNxFQdpEThUTqZ6-20" value="IN_PROGRESS" style="text;strokeColor=none;fillColor=none;align=left;verticalAlign=top;spacingLeft=4;spacingRight=4;overflow=hidden;rotatable=0;points=[[0,0.5],[1,0.5]];portConstraint=eastwest;" parent="PiwdkrNxFQdpEThUTqZ6-16" vertex="1">
                    <mxGeometry y="78" width="180" height="26" as="geometry"/>
                </mxCell>
                <mxCell id="PiwdkrNxFQdpEThUTqZ6-21" value="ABORTED" style="text;strokeColor=none;fillColor=none;align=left;verticalAlign=top;spacingLeft=4;spacingRight=4;overflow=hidden;rotatable=0;points=[[0,0.5],[1,0.5]];portConstraint=eastwest;" parent="PiwdkrNxFQdpEThUTqZ6-16" vertex="1">
                    <mxGeometry y="104" width="180" height="26" as="geometry"/>
                </mxCell>
                <mxCell id="PiwdkrNxFQdpEThUTqZ6-22" style="edgeStyle=orthogonalEdgeStyle;rounded=0;orthogonalLoop=1;jettySize=auto;html=1;exitX=0;exitY=0.5;exitDx=0;exitDy=0;entryX=0.5;entryY=0;entryDx=0;entryDy=0;fontSize=16;startArrow=none;startFill=0;endArrow=classic;endFill=1;startSize=6;endSize=6;dashed=1;" parent="yQ9km9YLX1whWhm04vPE-1" source="PiwdkrNxFQdpEThUTqZ6-1" target="PiwdkrNxFQdpEThUTqZ6-16" edge="1">
                    <mxGeometry relative="1" as="geometry"/>
                </mxCell>
                <mxCell id="PiwdkrNxFQdpEThUTqZ6-23" value="Use" style="text;align=center;fontStyle=1;verticalAlign=middle;spacingLeft=3;spacingRight=3;strokeColor=none;rotatable=0;points=[[0,0.5],[1,0.5]];portConstraint=eastwest;" parent="yQ9km9YLX1whWhm04vPE-1" vertex="1">
                    <mxGeometry x="-140" y="270" width="80" height="26" as="geometry"/>
                </mxCell>
                <mxCell id="PiwdkrNxFQdpEThUTqZ6-24" style="edgeStyle=none;rounded=0;orthogonalLoop=1;jettySize=auto;html=1;entryX=0.5;entryY=0;entryDx=0;entryDy=0;fontSize=16;startArrow=none;startFill=0;endArrow=classic;endFill=1;endSize=12;exitX=0.264;exitY=0.959;exitDx=0;exitDy=0;exitPerimeter=0;" parent="yQ9km9YLX1whWhm04vPE-1" source="PiwdkrNxFQdpEThUTqZ6-29" target="PiwdkrNxFQdpEThUTqZ6-0" edge="1">
                    <mxGeometry relative="1" as="geometry">
                        <mxPoint x="160" y="170" as="sourcePoint"/>
                        <mxPoint x="585.0000000000005" y="180" as="targetPoint"/>
                        <Array as="points"/>
                    </mxGeometry>
                </mxCell>
                <mxCell id="PiwdkrNxFQdpEThUTqZ6-31" style="edgeStyle=orthogonalEdgeStyle;rounded=0;orthogonalLoop=1;jettySize=auto;html=1;exitX=1;exitY=0.5;exitDx=0;exitDy=0;entryX=0.5;entryY=0;entryDx=0;entryDy=0;fontSize=16;startArrow=none;startFill=0;endArrow=classic;endFill=1;startSize=6;endSize=6;" parent="yQ9km9YLX1whWhm04vPE-1" source="PiwdkrNxFQdpEThUTqZ6-27" target="c9hsdTaSiC_n7xofiwrB-50" edge="1">
                    <mxGeometry relative="1" as="geometry"/>
                </mxCell>
                <mxCell id="PiwdkrNxFQdpEThUTqZ6-32" style="edgeStyle=orthogonalEdgeStyle;rounded=0;orthogonalLoop=1;jettySize=auto;html=1;exitX=1;exitY=0.5;exitDx=0;exitDy=0;entryX=0.5;entryY=0;entryDx=0;entryDy=0;fontSize=16;startArrow=none;startFill=0;endArrow=classic;endFill=1;startSize=6;endSize=6;" parent="yQ9km9YLX1whWhm04vPE-1" source="PiwdkrNxFQdpEThUTqZ6-28" target="c9hsdTaSiC_n7xofiwrB-16" edge="1">
                    <mxGeometry relative="1" as="geometry"/>
                </mxCell>
            </root>
        </mxGraphModel>
    </diagram>
</mxfile>